<?xml version="1.0"?>
<svg xmlns="http://www.w3.org/2000/svg" transform="rotate(-90)" viewBox="0 0 512 512" width="512" height="512"><g id="Out_line" data-name="Out line"><path d="M480,416H448V392H432v8H416v16h16v16H400v16h32v8a7.99977,7.99977,0,0,0,8,8v24a7.99977,7.99977,0,0,0,8,8h32a7.99977,7.99977,0,0,0,8-8V464a7.99977,7.99977,0,0,0,8-8V296H480Zm0,16v16H448V432Zm-8,48H456V464h16Z"/><path d="M488,48V24a7.99977,7.99977,0,0,0-8-8H448a7.99977,7.99977,0,0,0-8,8V48a7.99977,7.99977,0,0,0-8,8v8H80V56a7.99977,7.99977,0,0,0-8-8V24a7.99977,7.99977,0,0,0-8-8H32a7.99977,7.99977,0,0,0-8,8V48a7.99977,7.99977,0,0,0-8,8V456a7.99977,7.99977,0,0,0,8,8v24a7.99977,7.99977,0,0,0,8,8H64a7.99977,7.99977,0,0,0,8-8V464a7.99977,7.99977,0,0,0,8-8v-8H280V432H80V416H264V400H80V112H432V216h16V96h32V216h16V56A7.99977,7.99977,0,0,0,488,48ZM456,32h16V48H456ZM32,448V432H64v16Zm0-32V96H64V416ZM64,64V80H32V64ZM40,32H56V48H40ZM56,480H40V464H56ZM80,96V80H432V96ZM448,80V64h32V80Z"/><path d="M415.61914,387.69434A82.69652,82.69652,0,0,0,440,328.834V283.24121q0-1.61792-.06567-3.24121H480a7.99977,7.99977,0,0,0,8-8V240a7.99977,7.99977,0,0,0-8-8H422.343c-.53906-.68994-1.0791-1.37976-1.63648-2.04883A83.01852,83.01852,0,0,0,356.75928,200H296a32.036,32.036,0,0,0-32,32H192a7.95831,7.95831,0,0,0-3.28479.71094A15.94214,15.94214,0,0,0,184,232h-4.22314a144.288,144.288,0,0,1-64.19922-15.15527A7.99974,7.99974,0,0,0,104,224a56.001,56.001,0,0,0,56,56h24a15.94214,15.94214,0,0,0,4.71521-.71094A7.95831,7.95831,0,0,0,192,280h48a31.79259,31.79259,0,0,0,4.29913,15.98975A31.99179,31.99179,0,0,0,272,344h13.74353A35.06414,35.06414,0,0,0,280,363.31348v33.373a35.08178,35.08178,0,0,0,10.34326,24.97022A19.18705,19.18705,0,0,1,296,435.31348V496h16V435.31348a35.08178,35.08178,0,0,0-10.34326-24.97022A19.18705,19.18705,0,0,1,296,396.68652v-33.373a19.18705,19.18705,0,0,1,5.65674-13.65674A35.08178,35.08178,0,0,0,312,324.68652V280a16,16,0,0,1,32,0v17.37256a62.21548,62.21548,0,0,0,18.34326,44.28418l11.31348-11.31348A46.32275,46.32275,0,0,1,360,297.37256V280h16v24h16V280h31.91174c.05237,1.0813.08826,2.1626.08826,3.24121V328.834a66.801,66.801,0,0,1-19.69434,47.54688l-11.9248,11.9248A82.69652,82.69652,0,0,0,368,447.166V496h16V447.166a66.801,66.801,0,0,1,19.69434-47.54688ZM356.75928,216a67.02889,67.02889,0,0,1,43.53662,16H328a16.01833,16.01833,0,0,1,16-16ZM296,216h20.30493A31.794,31.794,0,0,0,312,232H280A16.01833,16.01833,0,0,1,296,216ZM160,264a39.94682,39.94682,0,0,1-37.71387-26.72754A160.47537,160.47537,0,0,0,179.77686,248l4.22265-.01025L184,248v16Zm136,16v16H272a16.01833,16.01833,0,0,1-16-16Zm-40,32a16.00951,16.00951,0,0,1,.5199-4.00562A31.7975,31.7975,0,0,0,272,312h24v12.68652A19.50809,19.50809,0,0,1,295.70056,328H272A16.01833,16.01833,0,0,1,256,312Zm99.69507-48a31.96928,31.96928,0,0,0-55.39014,0H200V248H472v16Z"/></g></svg>
