<svg height="503pt" viewBox="0 0 503.69848 503" width="503pt" xmlns="http://www.w3.org/2000/svg"><path d="m491.085938 89.765625c-20.691407-15.253906-47.078126 1.207031-64.320313 24.589844l-42.746094 64.453125c-29.058593 1.902344-57.984375 5.433594-86.644531 10.578125-18.878906 2.9375-36.78125 5.730469-44.882812 6.066406.40625-5.113281 1.128906-10.199219 2.167968-15.222656 3.398438-17.074219 5.183594-34.429688 5.328125-51.839844 1.042969-18.257813-3.613281-36.386719-13.328125-51.878906 11.117188-1.394531 22.078125-3.839844 32.734375-7.304688 8.96875-1.773437 18.179688-1.933593 27.203125-.46875 14.175782 1.292969 27.554688 2.519531 33.480469-6.941406 5.558594-8.847656-.175781-20.707031-5.78125-30.054687-23.949219-39.980469-44.519531-33.265626-68.316406-25.476563-5.175781 1.679687-10.53125 3.433594-16.417969 4.910156-40.929688 7.929688-82.289062 13.4375-123.867188 16.492188-8.863281.75-16.515624 6.507812-19.683593 14.816406-3.03125 7.328125-5.28125 22.453125 13.746093 41.480469 21.4375 21.4375 51.621094 12.96875 67.226563 6.3125 3.382813 15.285156 5.347656 30.855468 5.855469 46.507812 0 5.5625.394531 16.222656.933594 30.988282.4375 11.941406.972656 26.289062 1.402343 41.964843-47.433593 12.03125-96.097656 18.53125-145.023437 19.375-12.765625-.808593-25.515625 1.742188-36.988282 7.394531-8.203124 4.414063-13.273437 13.019532-13.164062 22.332032 1.445312 13.445312 7.335938 26.019531 16.738281 35.734375 3.703125 4.328125 16.453125 18.464843 25.019531 18.464843 6.078126-.855468 11.847657-3.207031 16.789063-6.839843 17.519531-11.410157 37.851563-17.757813 58.753906-18.339844 27.050781-1.8125 53.71875-7.386719 79.234375-16.5625.839844 30.351563-.367187 60.722656-3.609375 90.910156-4.410156 41.832031-4.257812 84.019531.453125 125.816407.679688 7.613281 6.484375 13.773437 14.042969 14.90625.910156.148437 1.828125.222656 2.75.21875 6.589844.03125 12.5625-3.871094 15.175781-9.917969 2.9375-7.625 5.289063-15.464844 7.035156-23.445313 2.519532-9.996094 5.707032-22.445312 10.390626-36.601562 2.351562-7.246094 4.238281-14.632813 5.648437-22.117188 5.300781 1.460938 10.710937 2.507813 16.175781 3.128906 2.824219.296876 5.660156.445313 8.5.445313 25.652344.566406 49.566406-12.917969 62.355469-35.160156 8.324219-12.007813 10.613281-27.199219 6.203125-41.128907.242188-.25.570312-.367187.78125-.660156l22.664062-30.65625 46.882813-57.359375c9.394531.957031 18.03125 1.738281 25.574219 1.738281 9.191406.917969 18.394531-1.570312 25.871094-6.992187 4.269531-3.921875 6.605468-9.515625 6.394531-15.308594-.539063-12.003906-6.757813-23.03125-16.746094-29.707031l33.742187-41.261719c7.503907-9.890625 12.824219-21.257812 15.613282-33.355469 3.671875-12.894531-.8125-26.730468-11.347656-35.023437zm-264.242188 338.152344c-4.878906 14.714843-8.125 27.480469-10.734375 37.773437-1.550781 7.011719-3.566406 13.914063-6.027344 20.664063-4.472656-40.4375-4.652343-81.230469-.539062-121.707031 3.363281-31.039063 4.625-62.273438 3.777343-93.484376-.105468-5.339843-2.726562-10.320312-7.066406-13.429687-4.269531-3.085937-9.757812-3.9375-14.765625-2.292969-23.914062 8.519532-48.867187 13.777344-74.1875 15.636719-23.847656.5625-47.078125 7.679687-67.148437 20.566406-2.785156 1.59375-6.144532 3.515625-7.6875 4.289063-7.203125-4.542969-28.09375-26.542969-25.5-39.125 1.425781-6.929688 13.511718-10.910156 33.164062-10.910156 50.320313-.859376 100.375-7.539063 149.160156-19.910157 7.628907-1.976562 12.882813-8.964843 12.664063-16.84375-.453125-15.621093-.992187-30.007812-1.425781-41.96875-.488282-14.023437-.898438-25.144531-.898438-30.390625-.816406-20.507812-3.710937-40.875-8.644531-60.792968-.648437-2.578126-2.472656-4.695313-4.925781-5.710938-2.453125-1.019531-5.242188-.816406-7.523438.546875-.359375.210937-36.703125 21.460937-56.90625 1.269531-8.453125-8.445312-12.222656-16.628906-10.375-22.453125.660156-2.289062 2.28125-4.183593 4.441406-5.1875 42.949219-3.085937 85.671876-8.777343 127.929688-17.039062 6.472656-1.613281 12.363281-3.535157 17.5625-5.230469 22.375-7.300781 31.609375-10.3125 48.753906 18.199219 2.515625 3.710937 4.402344 7.816406 5.574219 12.144531-5.789063.433594-11.609375.265625-17.367187-.511719-11.3125-1.816406-22.875-1.386719-34.023438 1.257813-15.453125 4.878906-31.511719 7.5625-47.710938 7.964844-4.019531.035156-7.445312 2.933593-8.140624 6.890624-.695313 4 1.523437 7.929688 5.304687 9.402344.839844.308594 19.632813 8.132813 19.632813 50.855469-.152344 16.414063-1.839844 32.78125-5.035157 48.882813-2.613281 14.664062-4.199219 23.503906 1.207031 29.957031 3.070313 3.484375 7.574219 5.363281 12.210938 5.09375 16.21875-1.304688 32.359375-3.425781 48.363281-6.351563 23.890625-3.726562 52.316407-8.132812 72.511719-9.753906l-21.824219 32.902344c-47.789062.117187-115.828125 1.433594-115.828125 41.964844 0 7.371093.386719 16.503906.839844 27.078124 1.707031 27.925782 1.613281 55.929688-.277344 83.84375-3.691406 1.773438-7.867187 2.261719-11.867187 1.382813-4.164063-1.039063-8.441407 1.222656-9.917969 5.253906-1.480469 4.027344.320312 8.519531 4.167969 10.417969 4.105469 2.039062 9.015625 4.347656 14.476562 6.5625-1.289062 7.546875-3.09375 14.992188-5.394531 22.292969zm93.898438-153.707031-22.664063 30.753906c-.152344.199218-.175781.453125-.308594.660156-2.363281-.050781-4.726562.085938-7.070312.414062-16.511719 2.527344-30.410157 13.699219-36.425781 29.285157-.234376.628906-.394532 1.257812-.597657 1.878906-.160156-14.109375-.710937-27.632813-1.222656-39.761719-.445313-10.382812-.839844-19.355468-.839844-26.363281 0-21.730469 50.804688-24.660156 87.871094-25.09375zm.835937 95.800781c-.234375.320312-.449219.65625-.636719 1.007812-10.945312 19.277344-32.640625 29.808594-54.558594 26.480469-6.023437-.675781-11.96875-1.953125-17.742187-3.808594 6.34375-4.667968 11.226563-11.046875 14.066406-18.390625 2.191407-6.203125 3.601563-12.652343 4.199219-19.203125.457031-5.054687 1.480469-10.039062 3.046875-14.867187 3.894531-9.84375 12.6875-16.90625 23.140625-18.589844 11.917969-1.640625 23.667969 3.980469 29.867188 14.289063 6.199218 10.3125 5.65625 23.324218-1.382813 33.082031zm12.339844-48.992188-17.375-12.808593 12.816406-17.40625 8.679687 6.402343 8.6875 6.40625zm119.121093-91.90625c0 2.0625-.570312 2.585938-.839843 2.835938-3.484375 3.148437-14.972657 2.988281-27.363281 2.023437l17.625-21.589844c5.875 3.6875 9.765624 9.839844 10.578124 16.730469zm32.925782-107.578125c-2.246094 9.539063-6.46875 18.503906-12.398438 26.3125l-116.542968 142.503906-18.027344-13.296874 101.5625-153.078126c9.71875-13.195312 28.535156-29.597656 40.605468-20.707031 1.78125 1.351563 7.335938 5.445313 4.800782 18.265625zm0 0"/><path d="m281.644531 153.152344c-1.789062 5.699218-.359375 11.917968 3.734375 16.265625 3.167969 3.433593 7.625 5.382812 12.296875 5.378906 1.316407 0 2.628907-.152344 3.910157-.453125 11.464843-2.644531 39.003906-10.996094 47.078124-31.347656 4.273438-12.511719 1.847657-26.335938-6.429687-36.644532-9.996094-14.992187-20.789063-23.285156-32.078125-24.660156-9.105469-.898437-18.128906 2.328125-24.601562 8.792969-6.488282 5.804687-7.601563 15.546875-2.59375 22.664063 4.867187 6.488281 4.382812 21.4375-1.316407 39.976562zm26.480469-54.800782c6.128906.746094 13.085938 6.714844 20.144531 17.316407 5.003907 5.8125 6.796875 13.730469 4.792969 21.132812-4.195312 10.59375-20.984375 17.886719-35.378906 21.304688v-.042969c5.296875-17.242188 9.359375-40.757812-.839844-55.195312 2.886719-3.128907 7.035156-4.785157 11.28125-4.5zm0 0"/><path d="m116.277344 208.917969c3.535156.597656 7.113281.902343 10.699218.90625 15.902344.59375 31.027344-6.898438 40.1875-19.910157 4.835938-7.152343 13.816407-20.460937 8.898438-33.019531-1.445312-3.800781-4.054688-7.050781-7.453125-9.28125-3.613281-2.167969-7.597656-3.648437-11.75-4.367187-2.390625-.367188-4.703125-1.140625-6.832031-2.289063-3.722656-3.789062-6.671875-8.265625-8.679688-13.179687l-.5625-1.140625c-11.96875-23.945313-24.585937-24.761719-33.070312-21.21875-8.761719 4.707031-14.351563 13.726562-14.671875 23.667969-1.109375 5.808593-2.507813 11.558593-4.195313 17.226562-1.429687 5.136719-2.847656 10.261719-3.914062 15.492188-2.851563 10.816406-1.128906 22.332031 4.769531 31.835937 6.335937 8.582031 15.972656 14.117187 26.574219 15.277344zm-14.925782-43.746094c.992188-4.84375 2.316407-9.601563 3.644532-14.363281 1.679687-6.042969 3.414062-12.296875 4.558594-18.851563.964843-5.570312 1.921874-9.929687 4.589843-11.042969.183594-.078124.378907-.113281.578125-.109374 2.199219 0 6.328125 3.96875 11.011719 13.34375l.554687 1.109374c3.023438 7.414063 7.753907 14.011719 13.808594 19.253907 3.917969 2.585937 8.335938 4.320312 12.96875 5.09375 2.175782.351562 4.289063 1.027343 6.269532 2.007812.507812.328125.890624.824219 1.082031 1.402344 1.679687 4.347656-4.988281 14.265625-7.183594 17.507813-9.59375 14.269531-27.128906 13.015624-34.222656 11.84375-6.074219-.511719-11.675781-3.484376-15.5-8.226563-3.152344-5.804687-3.925781-12.605469-2.160157-18.96875zm0 0"/></svg>