<svg id="Capa_1" enable-background="new 0 0 510.003 510.003" height="512" viewBox="0 0 510.003 510.003" width="512" xmlns="http://www.w3.org/2000/svg"><g><g><g><g><path d="m435.001 465.502c0 20.435-16.566 37.002-37.002 37.002h-262.999v-495.004h262.999c20.435 0 37.002 16.566 37.002 37.002z" fill="#7bdaa9"/><path d="m402.463 478.092h-243.052v-470.592h-24.411v495.003h263c20.435 0 37.001-16.566 37.001-37.001v-.636c-8.708 8.48-20.383 13.226-32.538 13.226z" fill="#498790"/><path d="m337.334 7.5v89.334h7.444l15.224-22.333 15.001 22.333h7.332v-89.334z" fill="#e08ea2"/><path d="m360.255 36.5v-29h-22.921v89.334h7.444l15.224-22.333 15.001 22.333h7.332v-23z" fill="#d15573"/><path d="m75.002 7.5h59.999v495.003h-59.999z" fill="#e46a4a"/><path d="m98.913 478.592v-471.092h-23.912v495.003h59.999v-23.911z" fill="#be310c"/><path d="m195.01 187.506h179.982v135h-179.982z" fill="#faef93"/><path d="m216.751 299.843v-112.337h-21.741v135h179.982v-22.663z" fill="#efc17a"/></g></g></g><g><path d="m397.009 0h-329.507v510.003h329.507c25.084 0 45.492-20.407 45.492-45.491v-419.021c0-25.084-20.408-45.491-45.492-45.491zm-52.175 15h30.001v68.133l-14.787-22.015-15.214 22.317zm82.667 449.512c0 16.813-13.679 30.491-30.492 30.491h-254.509v-405.502h-15v405.502h-44.998v-480.003h44.998v29.501h15v-29.501h187.334v89.334h18.907l11.215-16.45 11.05 16.45h18.829s0-72.835 0-89.334c7.166-.499 15.132.101 23.091 5.622s14.575 16.463 14.575 24.869z"/><path d="m127.5 59.501h15v15h-15z"/><path d="m277.516 299.836v-90.166h-60.667v90.166h15v-30.166h30.667v30.166zm-45.668-45.166v-30h30.667v30z"/><path d="m292.515 254.51v44.991h60v-74.821h-60.5v15h45.5v14.83zm45 29.991h-30v-14.991h30z"/><path d="m330.001 315.006h-127.491v-120h164.982v120h-22.491v15h37.491v-150h-194.982v150h142.491z"/><path d="m300.001 404.334h15v15h-15z"/><path d="m330.001 404.334h53.001v15h-53.001z"/><path d="m300.001 434.668h15v15h-15z"/><path d="m330.001 434.668h53.001v15h-53.001z"/></g></g></svg>