<svg id="Layer_3" height="512" viewBox="0 0 64 64" width="512" xmlns="http://www.w3.org/2000/svg" data-name="Layer 3"><path d="m63 34.05-11.38 3.41-17.11 5.14-2.51.75-2.51-.75-17.11-5.14-11.38-3.41a30.794 30.794 0 0 1 2.64-12.52c.26-.62.56-1.22.87-1.82a31.033 31.033 0 0 1 5.93-7.93c.48-.47.98-.92 1.49-1.35a30.635 30.635 0 0 1 7.8-4.85c.61-.27 1.23-.51 1.86-.74a30.907 30.907 0 0 1 9.41-1.77c.33-.01.67-.02 1-.02s.67.01 1 .02a30.907 30.907 0 0 1 9.41 1.77c.63.23 1.25.47 1.86.74a30.635 30.635 0 0 1 7.8 4.85c.51.43 1.01.88 1.49 1.35a31.033 31.033 0 0 1 5.93 7.93c.31.6.61 1.2.87 1.82a30.794 30.794 0 0 1 2.64 12.52z" fill="#55bd8d"/><path d="m51.62 37.46-17.11 5.14-2.51.75-2.51-.75-17.11-5.14a16.525 16.525 0 0 1 .14-2.12 18.565 18.565 0 0 1 1.5-5.35 17.216 17.216 0 0 1 .94-1.81 18.932 18.932 0 0 1 3.35-4.21c.49-.46 1-.9 1.53-1.31a20.1 20.1 0 0 1 4.23-2.49 19.872 19.872 0 0 1 1.87-.69 20.106 20.106 0 0 1 5.06-.91c.33-.01.67-.02 1-.02s.67.01 1 .02a20.106 20.106 0 0 1 5.06.91 19.872 19.872 0 0 1 1.87.69 20.1 20.1 0 0 1 4.23 2.49c.53.41 1.04.85 1.53 1.31a18.932 18.932 0 0 1 3.35 4.21 17.216 17.216 0 0 1 .94 1.81 18.565 18.565 0 0 1 1.5 5.35 16.525 16.525 0 0 1 .14 2.12z" fill="#e55421"/><g fill="#02483d"><path d="m59.164 56.014-5.637-.939-2.352-2.789a7.167 7.167 0 0 0 -5.622-2.7h-7.353a5.206 5.206 0 0 1 -5.2-5.2v-1.036a1 1 0 0 0 -2 0v1.033a7.209 7.209 0 0 0 7.2 7.2h7.354a5.189 5.189 0 0 1 4.076 1.971l2.308 2.737-.924 5.544a1 1 0 1 0 1.973.329l.836-5.014 5.014.835a1 1 0 1 0 .328-1.973z"/><g opacity=".3"><path d="m60.36 21.53-10.38 8.46-15.47 12.61-2.51.75-2.51-.75-15.47-12.61-10.38-8.46c.26-.62.56-1.22.87-1.82a.71.71 0 0 1 .22.13l10.23 8.34 12.78 10.41-9.43-14.62-7.87-12.19c.48-.47.98-.92 1.49-1.35a.313.313 0 0 1 .09.11l7.82 12.12 9.21 14.27-4.98-16.76-4.34-14.59c.61-.27 1.23-.51 1.86-.74.01.02.01.05.02.07l4.33 14.57 5.06 17v-24.48a1 1 0 0 1 2 0v24.48l5.06-17 4.33-14.57c.01-.02.01-.05.02-.07.63.23 1.25.47 1.86.74l-4.34 14.59-4.98 16.76 9.21-14.27 7.82-12.12a.313.313 0 0 1 .09-.11c.51.43 1.01.88 1.49 1.35l-7.87 12.19-9.43 14.62 12.78-10.41 10.23-8.34a.71.71 0 0 1 .22-.13c.31.6.61 1.2.87 1.82z"/><path d="m33 3.07v4.93a1 1 0 0 1 -2 0v-4.93c.33-.01.67-.02 1-.02s.67.01 1 .02z"/></g><path d="m10 32h-1a1 1 0 0 1 0-2h1a1 1 0 0 1 0 2z"/><path d="m6 32h-1a1 1 0 0 1 0-2h1a1 1 0 0 1 0 2z"/></g></svg>