<svg id="Layer_3" height="512" viewBox="0 0 64 64" width="512" xmlns="http://www.w3.org/2000/svg" data-name="Layer 3"><path d="m47 37h-30l.33-2 .61-3.62 1.06-6.38a6 6 0 0 1 6-6h14a6 6 0 0 1 6 6l1.06 6.38.61 3.62z" fill="#55bd8d"/><path d="m19.36 35 .6-3.62 1.01-6.05a1.839 1.839 0 0 0 .03-.33 4 4 0 0 1 4-4h14a4 4 0 0 1 4 4 1.839 1.839 0 0 0 .03.33l1.01 6.05.6 3.62z" fill="#55bd8d"/><path d="m28 19h8a0 0 0 0 1 0 0v5.6a2.4 2.4 0 0 1 -2.4 2.4h-3.2a2.4 2.4 0 0 1 -2.4-2.4v-5.6a0 0 0 0 1 0 0z" fill="#eb8a67"/><g opacity=".5"><path d="m47 37h-30l1-6h28z" fill="#032d25"/></g><path d="m32 5a1 1 0 0 1 -1-.958l-.125-3a1 1 0 0 1 .958-1.042.978.978 0 0 1 1.041.957l.125 3a1 1 0 0 1 -.957 1.043z" fill="#e3774a"/><path d="m39 14a1 1 0 0 1 -1-1v-5a1 1 0 0 1 2 0v5a1 1 0 0 1 -1 1z" fill="#e3774a"/><path d="m25 14a1 1 0 0 1 -1-1v-5a1 1 0 0 1 2 0v5a1 1 0 0 1 -1 1z" fill="#e3774a"/><path d="m25 38a1 1 0 0 1 -1-1v-7a1 1 0 0 1 2 0v7a1 1 0 0 1 -1 1z" fill="#02483d"/><path d="m39 38a1 1 0 0 1 -1-1v-7a1 1 0 0 1 2 0v7a1 1 0 0 1 -1 1z" fill="#02483d"/><path d="m29 14h6v5h-6z" fill="#e3774a"/><path d="m31 17h2v-1h-2z" fill="#e3774a"/><path d="m37 9v5h-10v-5a5 5 0 1 1 10 0z" fill="#eb8a67"/><path d="m29 9a3 3 0 0 1 6 0v3h-6z" fill="#eb8a67"/><path d="m32 4v10h-5v-5a5 5 0 0 1 5-5z" fill="#f9a991"/><path d="m56 43v6h-48v-6a6 6 0 0 1 6-6h36a6.007 6.007 0 0 1 6 6z" fill="#55bd8d"/><path d="m54 46h-44v-3a3.98 3.98 0 0 1 2-3.46 2.88 2.88 0 0 1 .5-.24 3.755 3.755 0 0 1 1.5-.3h36a3.755 3.755 0 0 1 1.5.3 3.978 3.978 0 0 1 2.5 3.7z" fill="#55bd8d"/><g opacity=".3"><path d="m54.72 39.3h-37.1a5.625 5.625 0 0 0 -5.62 5.62v4.08h-4v-6a6 6 0 0 1 6-6h36a5.982 5.982 0 0 1 4.72 2.3z" fill="#e6e7e8"/></g><path d="m35 37c0 .17-7.14 12.5-7.14 12.5a.99.99 0 0 1 -.86.5.9.9 0 0 1 -.5-.14.987.987 0 0 1 -.36-1.36l6.71-11.5z" fill="#02483d"/><path d="m2 49 5 7h49l6-7z" fill="#e3774a"/><path d="m62 49-.86 1h-58.43l-.71-1z" fill="#eb8a67"/><g fill="#e55421"><path d="m14 57a1 1 0 0 1 -1-1v-4a1 1 0 0 1 2 0v4a1 1 0 0 1 -1 1z"/><path d="m23 57a1 1 0 0 1 -1-1v-4a1 1 0 0 1 2 0v4a1 1 0 0 1 -1 1z"/><path d="m32 57a1 1 0 0 1 -1-1v-4a1 1 0 0 1 2 0v4a1 1 0 0 1 -1 1z"/><path d="m41 57a1 1 0 0 1 -1-1v-4a1 1 0 0 1 2 0v4a1 1 0 0 1 -1 1z"/><path d="m50 57a1 1 0 0 1 -1-1v-4a1 1 0 0 1 2 0v4a1 1 0 0 1 -1 1z"/><path d="m56 56h-49l-5.75 8h61.375z"/></g><g opacity=".3"><path d="m54.72 39.3h-37.1a5.625 5.625 0 0 0 -5.62 5.62v4.08h-4v-6a6 6 0 0 1 6-6h36a5.982 5.982 0 0 1 4.72 2.3z" fill="#e6e7e8"/></g><path d="m52 46h-1a1 1 0 0 1 0-2h1a1 1 0 0 1 0 2z" fill="#0d8e85"/><path d="m47 46h-1a1 1 0 0 1 0-2h1a1 1 0 0 1 0 2z" fill="#0d8e85"/></svg>