<svg id="Layer_3" height="512" viewBox="0 0 64 64" width="512" xmlns="http://www.w3.org/2000/svg" data-name="Layer 3"><path d="m25.6 54.79-16.606-14.962a1 1 0 0 0 -1.547.265l-7.325 13.428a1 1 0 0 0 .171 1.186l9 9a1 1 0 0 0 1.154.188l14.934-7.467a1 1 0 0 0 .219-1.638z" fill="#aa3713"/><path d="m63.747 9.336-8-9a1 1 0 0 0 -1.166-.244l-15 6.923a1 1 0 0 0 -.255 1.646l16.114 14.7a1 1 0 0 0 .674.262 1.045 1.045 0 0 0 .165-.014 1 1 0 0 0 .713-.508l6.886-12.625a1 1 0 0 0 -.131-1.14z" fill="#aa3713"/><path d="m59 32a26.983 26.983 0 0 1 -22.3 26.58 26.082 26.082 0 0 1 -4.7.42 27 27 0 0 1 -2.44-53.88c.8-.08 1.62-.12 2.44-.12a27 27 0 0 1 27 27z" fill="#e55421"/><circle cx="32" cy="32" fill="#e6e7e8" r="19.5"/><path d="m18 27h8v7h-8z" fill="#eb8a67"/><path d="m27 18h8v7h-8z" fill="#aa3713"/><path d="m28 39h8v7h-8z" fill="#aa3713"/><path d="m38 30h8v7h-8z" fill="#eb8a67"/><g opacity=".3"><path d="m59 32a26.983 26.983 0 0 1 -22.3 26.58c-3.09-5.66-4.8-13.16-.7-21.58 6.11-12.55-1.14-25.11-6.44-31.88.8-.08 1.62-.12 2.44-.12a27 27 0 0 1 27 27z" fill="#aa3713"/></g><path d="m42 25h-2a1 1 0 0 1 0-2h2a1 1 0 0 1 0 2z" fill="#02483d"/><path d="m23 41h-2a1 1 0 0 1 0-2h2a1 1 0 0 1 0 2z" fill="#0d8e85"/><path d="m35 10h-1a1 1 0 0 1 0-2h1a1 1 0 0 1 0 2z" fill="#aa3713"/><path d="m30 10h-1a1 1 0 0 1 0-2h1a1 1 0 0 1 0 2z" fill="#aa3713"/><path d="m45 42h-1a1 1 0 0 1 0-2h1a1 1 0 0 1 0 2z" fill="#939598"/><path d="m41 42h-1a1 1 0 0 1 0-2h1a1 1 0 0 1 0 2z" fill="#939598"/><path d="m33 32h-2a1 1 0 0 1 0-2h2a1 1 0 0 1 0 2z" fill="#0d8e85"/></svg>