<svg id="Layer_3" height="512" viewBox="0 0 64 64" width="512" xmlns="http://www.w3.org/2000/svg" data-name="Layer 3"><path d="m32 6a1 1 0 0 1 -1-1v-4a1 1 0 0 1 2 0v4a1 1 0 0 1 -1 1z" fill="#e55421"/><path d="m39 12h-14a7 7 0 0 1 7-7 6.748 6.748 0 0 1 1.57.18 6.994 6.994 0 0 1 5.43 6.82z" fill="#55bd8d"/><path d="m35.61 12a7.951 7.951 0 0 0 -2.04-6.82 6.994 6.994 0 0 1 5.43 6.82z" fill="#0d8e85"/><path d="m57 33h-50a28.194 28.194 0 0 1 5-12c3.89-5.35 6.67-7.93 9-9h23a24.9 24.9 0 0 1 12.85 19c.09.77.13 1.44.15 2z" fill="#e55421"/><path d="m19 57h26v7h-26z" fill="#02483d"/><path d="m62 33v6.61a17.4 17.4 0 0 1 -17.39 17.39h-25.22c-.52 0-1.03-.02-1.53-.07a17.4 17.4 0 0 1 -15.86-17.32v-6.61z" fill="#55bd8d"/><path d="m62 33v6.61a17.4 17.4 0 0 1 -17.39 17.39h-25.22c-.52 0-1.03-.02-1.53-.07a63.78 63.78 0 0 0 8.14-1.93c15.63-4.82 21.09-13.95 22.98-20a20.265 20.265 0 0 0 .54-2z" fill="#3b9b6b"/><g opacity=".5"><path d="m56.85 31 .15 2h-45l2-2 17.03-3.04a13.3 13.3 0 0 0 10.97-13.1v-2.86h2a24.9 24.9 0 0 1 12.85 19z" fill="#aa3713"/></g><path d="m26 41h-4a1 1 0 0 1 0-2h4a1 1 0 0 1 0 2z" fill="#02483d"/><g fill="#aa3713"><path d="m24 22h-4a1 1 0 0 1 0-2h4a1 1 0 0 1 0 2z"/><path d="m27 28h-4a1 1 0 0 1 0-2h4a1 1 0 0 1 0 2z"/><path d="m51 27h-4a1 1 0 0 1 0-2h4a1 1 0 0 1 0 2z"/><path d="m20 28h-4a1 1 0 0 1 0-2h4a1 1 0 0 1 0 2z"/></g><path d="m53 33v5a1 1 0 0 1 -2 0v-5z" fill="#02483d"/><path d="m15 41h-1a1 1 0 0 1 0-2h1a1 1 0 0 1 0 2z" fill="#02483d"/><path d="m11 41h-1a1 1 0 0 1 0-2h1a1 1 0 0 1 0 2z" fill="#02483d"/><path d="m27.5 12v5.75a3.25 3.25 0 0 0 3.25 3.25 3.25 3.25 0 0 1 3.25 3.25v.5a3.25 3.25 0 0 0 3.25 3.25h1.5a3.25 3.25 0 0 0 3.25-3.25v-12.75z" fill="#e3774a"/><path d="m37 19a1 1 0 0 1 -1-1v-4a1 1 0 0 1 2 0v4a1 1 0 0 1 -1 1z" fill="#aa3713"/></svg>