<svg id="Layer_3" height="512" viewBox="0 0 64 64" width="512" xmlns="http://www.w3.org/2000/svg" data-name="Layer 3"><path d="m58 33-11.74 3.2-28.6.3-11.66-3.5 1.13-4.21.52-1.94 5.35-19.85c1-3 3.69-6 7-6h24c3.31 0 6 2 7 6z" fill="#e3774a"/><path d="m52.21 64h-40.42l8.76-41 .45-2h22l1.93 8.99.41 1.95z" fill="#55bd8d"/><path d="m39.006 1-7.006 11-7.006-11z" fill="#aa3713"/><g opacity=".3"><path d="m23.82 1-5.48 4.82a6.04 6.04 0 0 0 -1.82 2.9l-7.03 25.33-3.49-1.05 7-26c1-3 3.69-6 7-6z" fill="#e6e7e8"/></g><g opacity=".3"><path d="m29 21v9l-3.19 34h-14.02l9.21-43z" fill="#f1f2f2"/></g><path d="m43 22a1 1 0 0 1 -.949-1.316l2-6a1 1 0 0 1 1.9.633l-2 6a1 1 0 0 1 -.951.683z" fill="#e55421"/><path d="m21 22a1 1 0 0 1 -.949-.684l-2-6a1 1 0 0 1 1.9-.633l2 6a1 1 0 0 1 -.951 1.317z" fill="#e55421"/><g opacity=".5"><path d="m43 64a1 1 0 0 1 -.992-.883l-4-34a1.048 1.048 0 0 1 -.008-.117v-8a1 1 0 0 1 2 0v7.941l3.993 33.941a1 1 0 0 1 -.876 1.11.964.964 0 0 1 -.117.008z" fill="#02483d"/></g><g opacity=".5"><path d="m21.58 54a.951.951 0 0 1 -.157-.013 1 1 0 0 1 -.832-1.144l1.409-8.921v-2.922a1 1 0 0 1 2 0v3a.991.991 0 0 1 -.012.156l-1.421 9a1 1 0 0 1 -.987.844z" fill="#02483d"/></g><g opacity=".5"><path d="m20 64a.951.951 0 0 1 -.157-.013 1 1 0 0 1 -.832-1.144l.947-6a1 1 0 0 1 1.976.313l-.947 6a1 1 0 0 1 -.987.844z" fill="#02483d"/></g><g opacity=".5"><path d="m28 64c-.029 0-.059 0-.089 0a1 1 0 0 1 -.911-1.088l3-34v-7.912a1 1 0 0 1 2 0v8l-3 34.088a1 1 0 0 1 -1 .912z" fill="#02483d"/></g><g opacity=".5"><path d="m35 64a1 1 0 0 1 -1-1v-20a1 1 0 0 1 2 0v20a1 1 0 0 1 -1 1z" fill="#02483d"/></g><path d="m19.02 30.26-.42 1.96c-.03-.01-.06-.02-.1-.03l-11.37-3.4.52-1.94c.01 0 .02.01.03.01z" fill="#e55421"/><path d="m56.94 29.04c-.01.01-.01.01-.02.01l-11.54 2.89c-.01 0-.03.01-.04 0l-.41-1.95 11.49-2.88z" fill="#e55421"/><path d="m39 18h-1a1 1 0 0 1 0-2h1a1 1 0 0 1 0 2z" fill="#aa3713"/><path d="m35 18h-1a1 1 0 0 1 0-2h1a1 1 0 0 1 0 2z" fill="#aa3713"/><path d="m43 22h-22a1 1 0 0 1 0-2h22a1 1 0 0 1 0 2z" fill="#e55421"/><path d="m40 12h-17a1 1 0 0 1 0-2h17a1 1 0 0 1 0 2z" fill="#aa3713"/><path d="m26 30a1 1 0 0 1 -1-1v-18a1 1 0 0 1 2 0v18a1 1 0 0 1 -1 1z" fill="#02483d"/><path d="m32 13a1 1 0 0 1 -.844-.463l-7-11a1 1 0 1 1 1.688-1.074l6.156 9.675 6.156-9.675a1 1 0 1 1 1.688 1.074l-7 11a1 1 0 0 1 -.844.463z" fill="#e55421"/></svg>