<svg id="Layer_3" height="512" viewBox="0 0 64 64" width="512" xmlns="http://www.w3.org/2000/svg" data-name="Layer 3"><path d="m64 10.25v40l-62.939-.25v-40z" fill="#e6e7e8"/><path d="m35.561 27c-2.485 0-4.5 1.567-4.5 3.5s-2.015 3.5-4.5 3.5c-2.345 0-4.248-1.4-4.459-3.181a8.992 8.992 0 0 0 17.94-.459c-.096-1.867-2.058-3.36-4.481-3.36z" fill="#e55421"/><path d="m31.061 21a9 9 0 0 0 -9 9c0 .276.017.549.041.819.21 1.781 2.114 3.181 4.459 3.181 2.485 0 4.5-1.567 4.5-3.5s2.015-3.5 4.5-3.5c2.424 0 4.385 1.493 4.482 3.36 0-.12.018-.238.018-.36a9 9 0 0 0 -9-9z" fill="#02483d"/><g opacity=".3"><path d="m64 10.25v15c-7.91 3.28-21.479 5.75-33.189 5.75-11.46 0-21.9-1.92-29.75-5.07v-15.93z" fill="#e6e7e8"/></g><path d="m1 64a1 1 0 0 1 -1-1v-57a1 1 0 0 1 2 0v57a1 1 0 0 1 -1 1z" fill="#aa3713"/><path d="m1 4a1 1 0 0 1 -1-1v-2a1 1 0 0 1 2 0v2a1 1 0 0 1 -1 1z" fill="#aa3713"/><g fill="#02483d"><path d="m16 22a1 1 0 0 1 -.556-1.832l3-2a1 1 0 1 1 1.109 1.664l-3 2a.994.994 0 0 1 -.553.168z"/><path d="m44 42a1 1 0 0 1 -.707-1.707l2-2a1 1 0 0 1 1.414 1.414l-2 2a1 1 0 0 1 -.707.293z"/><path d="m18 42a1 1 0 0 1 -.707-.293l-2-2a1 1 0 0 1 1.414-1.414l2 2a1 1 0 0 1 -.707 1.707z"/><path d="m46 22a1 1 0 0 1 -.707-.293l-2-2a1 1 0 0 1 1.414-1.414l2 2a1 1 0 0 1 -.707 1.707z"/></g><path d="m58 46h-1a1 1 0 0 1 0-2h1a1 1 0 0 1 0 2z" fill="#bcbec0"/><path d="m53 46h-1a1 1 0 0 1 0-2h1a1 1 0 0 1 0 2z" fill="#bcbec0"/></svg>