<svg id="Layer_3" height="512" viewBox="0 0 64 64" width="512" xmlns="http://www.w3.org/2000/svg" data-name="Layer 3"><path d="m63 30.43v9.84a3.1 3.1 0 0 1 -3.1 3.1h-.29a3.1 3.1 0 0 1 -3.09-2.79l-.33-3.36a6.213 6.213 0 0 0 -4.47-5.34l-2.72-.88v27a6.228 6.228 0 0 1 -6 6 6.237 6.237 0 0 1 -6-6v-9l-9-6.3-1-.7v16a6.1 6.1 0 0 1 -1.75 4.18 5.778 5.778 0 0 1 -4.1 1.82 6.374 6.374 0 0 1 -6.15-6v-21l-3 1a5.271 5.271 0 0 0 -3.01 2.08 6.151 6.151 0 0 0 -.99 2.92l-.52 3.78a3.1 3.1 0 0 1 -3.08 2.79h-.3a3.1 3.1 0 0 1 -3.1-3.1v-9.84a4.446 4.446 0 0 1 .04-.63 6.179 6.179 0 0 1 3.08-4.75l10.88-6.25v-7l.87-.98 7.13-8.02h4v-6a2.877 2.877 0 0 1 2.93-3h5.17a2.853 2.853 0 0 1 2.9 3v6h4l7 6v4l2 1.11 8.88 4.94a6.2 6.2 0 0 1 3.12 5.38z" fill="#eb8a67"/><g opacity=".5"><path d="m8.99 40.08a6.151 6.151 0 0 0 -.99 2.92l-.52 3.78a3.1 3.1 0 0 1 -3.08 2.79h-.3v-3.44a6.179 6.179 0 0 1 4.89-6.05z" fill="#e55421"/></g><g opacity=".5"><path d="m27 46v12a6.1 6.1 0 0 1 -1.75 4.18 5.87 5.87 0 0 1 -3.25 1.74v-11.81a6.139 6.139 0 0 1 5-6.11z" fill="#e55421"/></g><g opacity=".3"><path d="m29.479.041v11.292h-2.646l-3.451 3.617a6.185 6.185 0 0 0 -1.715 4.278v3.972a6.209 6.209 0 0 1 -3.183 5.415l-11.2 6.241a6.209 6.209 0 0 0 -3.184 5.411v9.3a3.1 3.1 0 0 1 -3.1-3.1v-9.838a6.2 6.2 0 0 1 3.121-5.384l10.879-6.245v-7l8-9h4v-6a2.839 2.839 0 0 1 2.479-2.959z" fill="#f9af98"/></g><g opacity=".5"><path d="m63 30.43v9.84a3.1 3.1 0 0 1 -3.1 3.1h-.29a3.1 3.1 0 0 1 -3.09-2.79l-.33-3.36a6.213 6.213 0 0 0 -4.47-5.34l-2.72-.88v27a6.228 6.228 0 0 1 -6 6v-34l-11-15v-15h3.1a2.853 2.853 0 0 1 2.9 3v6h4l7 6v4l10.88 6.05a6.2 6.2 0 0 1 3.12 5.38z" fill="#e55421"/></g><path d="m49 16v2h-5a1 1 0 0 1 0-2z" fill="#aa3713"/><g fill="#e55421"><path d="m43 55h-3a1 1 0 0 1 0-2h3a1 1 0 0 1 0 2z"/><path d="m22 46a1 1 0 0 1 -1 1h-6v-2h6a1 1 0 0 1 1 1z"/><path d="m26 30h-4a1 1 0 0 1 0-2h4a1 1 0 0 1 0 2z"/></g><path d="m38 15h-4a1 1 0 0 1 0-2h4a1 1 0 0 1 0 2z" fill="#aa3713"/><path d="m61.967 31.967h-4.134a1 1 0 0 1 0-2h4.133a1 1 0 0 1 0 2z" fill="#aa3713"/><path d="m7 37a1 1 0 0 1 -1 1h-5v-1.37a4.446 4.446 0 0 1 .04-.63h4.96a1 1 0 0 1 1 1z" fill="#e55421"/><path d="m28 38v4.7l-1-.7v2a1 1 0 0 1 -1-1v-5a1 1 0 0 1 2 0z" fill="#e55421"/><path d="m16 32v5a1 1 0 0 1 -1 1v-1l-.94.31a.815.815 0 0 1 -.06-.31v-5a1 1 0 0 1 2 0z" fill="#e55421"/><path d="m51 20.11v4.89a1 1 0 0 1 -2 0v-6z" fill="#aa3713"/><path d="m28.62 23.78a.961.961 0 0 1 -.62.22 1 1 0 0 1 -.78-.38c-3.77-4.71-12.12-4.61-12.2-4.62h-.02v-1l.87-.98c2.43.11 9.27.8 12.91 5.36a.981.981 0 0 1 -.16 1.4z" fill="#e55421"/><path d="m49 40v2h-.09c-1.02 0-7.65-.25-10.8-6.55a1 1 0 0 1 1.78-.9c2.77 5.54 8.83 5.48 9.08 5.45z" fill="#aa3713"/></svg>