<svg id="Layer_3" height="512" viewBox="0 0 64 64" width="512" xmlns="http://www.w3.org/2000/svg" data-name="Layer 3"><path d="m17 6a1 1 0 0 1 -1-1v-4a1 1 0 0 1 2 0v4a1 1 0 0 1 -1 1z" fill="#0d8e85"/><path d="m47 6a1 1 0 0 1 -1-1v-4a1 1 0 0 1 2 0v4a1 1 0 0 1 -1 1z" fill="#0d8e85"/><path d="m16 19-10-7h52l-10 7" fill="#e55421"/><path d="m16 37h32v7h-32z" fill="#e3774a"/><path d="m16 17h32v7h-32z" fill="#e3774a"/><path d="m58 30-10 7h-32l-10-7z" fill="#e55421"/><path d="m58 12h-52a24.825 24.825 0 0 0 3.92-1.83 24.345 24.345 0 0 0 3.08-2.17 23.527 23.527 0 0 0 3-3h32c.43.52.92 1.05 1.47 1.6.46.47.97.93 1.53 1.4a23.42 23.42 0 0 0 7 4z" fill="#55bd8d"/><g fill="#aa3713"><path d="m24 25a1 1 0 0 1 -1-1v-3a1 1 0 0 1 2 0v3a1 1 0 0 1 -1 1z"/><path d="m32 25a1 1 0 0 1 -1-1v-3a1 1 0 0 1 2 0v3a1 1 0 0 1 -1 1z"/><path d="m40 25a1 1 0 0 1 -1-1v-3a1 1 0 0 1 2 0v3a1 1 0 0 1 -1 1z"/><path d="m24 45a1 1 0 0 1 -1-1v-3a1 1 0 0 1 2 0v3a1 1 0 0 1 -1 1z"/><path d="m32 45a1 1 0 0 1 -1-1v-3a1 1 0 0 1 2 0v3a1 1 0 0 1 -1 1z"/><path d="m40 45a1 1 0 0 1 -1-1v-3a1 1 0 0 1 2 0v3a1 1 0 0 1 -1 1z"/><path d="m26 37h-2.22l-4.59-6.42a.98.98 0 0 1 -.19-.58 1 1 0 0 1 1.81-.58l.41.58 4.59 6.42a.981.981 0 0 1 .19.58z"/><path d="m33 30v7h-2v-7a1 1 0 0 1 2 0z"/><path d="m45 30a.98.98 0 0 1 -.19.58l-4.59 6.42h-2.22a.981.981 0 0 1 .19-.58l4.59-6.42.41-.58a1 1 0 0 1 1.81.58z"/></g><path d="m27 5a1.034 1.034 0 0 1 -.12.48 18.945 18.945 0 0 1 -3.17 4.23 18.172 18.172 0 0 1 -2.8 2.29h-2.91a1.006 1.006 0 0 1 .52-.88 16.546 16.546 0 0 0 3.77-2.83 15.809 15.809 0 0 0 2.54-3.29z" fill="#0d8e85"/><path d="m31 5h2v7h-2z" fill="#0d8e85"/><path d="m46 12h-3.12a11.155 11.155 0 0 1 -2.66-2.37 11.416 11.416 0 0 1 -2.19-4.39.986.986 0 0 1 -.03-.24h2.04a9.263 9.263 0 0 0 1.74 3.37 9.425 9.425 0 0 0 3.61 2.71 1 1 0 0 1 .61.92z" fill="#0d8e85"/><g opacity=".3"><path d="m49.47 6.6c-5.77.953-11.935 1.78-18.47 2.4-7.46.708-14.509 1.063-21.08 1.17a24.345 24.345 0 0 0 3.08-2.17 23.527 23.527 0 0 0 3-3h32c.43.52.92 1.05 1.47 1.6z" fill="#e6e7e8"/></g><path d="m52 27a30.472 30.472 0 0 1 -2.68-1.91c-.47-.37-.91-.73-1.32-1.09h-32a33.262 33.262 0 0 1 -4 3 33.076 33.076 0 0 1 -6 3h52a33.076 33.076 0 0 1 -6-3z" fill="#55bd8d"/><g opacity=".3"><path d="m49.32 25.09c-.99.32-2.04.63-3.14.91-2.98.78-6.3 1.44-9.76 2-5.62.91-11.57 1.55-16.92 2h-13.5a33.076 33.076 0 0 0 6-3 33.262 33.262 0 0 0 4-3h32c.41.36.85.72 1.32 1.09z" fill="#e6e7e8"/></g><path d="m25 28h-1a1 1 0 0 1 0-2h1a1 1 0 0 1 0 2z" fill="#0d8e85"/><path d="m20 28h-1a1 1 0 0 1 0-2h1a1 1 0 0 1 0 2z" fill="#0d8e85"/><path d="m53 44h-42l-9 11v9h60v-9z" fill="#e3774a"/><path d="m31 54h2a6 6 0 0 1 6 6v4a0 0 0 0 1 0 0h-14a0 0 0 0 1 0 0v-4a6 6 0 0 1 6-6z" fill="#aa3713"/><path d="m30 49h-4a1 1 0 0 1 0-2h4a1 1 0 0 1 0 2z" fill="#992608"/><path d="m39 49h-4a1 1 0 0 1 0-2h4a1 1 0 0 1 0 2z" fill="#992608"/><path d="m15 58h-4a1 1 0 0 1 0-2h4a1 1 0 0 1 0 2z" fill="#992608"/><path d="m19 52h-4a1 1 0 0 1 0-2h4a1 1 0 0 1 0 2z" fill="#992608"/><path d="m11 52h-4a1 1 0 0 1 0-2h4a1 1 0 0 1 0 2z" fill="#992608"/><path d="m53 58h-4a1 1 0 0 1 0-2h4a1 1 0 0 1 0 2z" fill="#992608"/><path d="m57 52h-4a1 1 0 0 1 0-2h4a1 1 0 0 1 0 2z" fill="#992608"/><path d="m49 52h-4a1 1 0 0 1 0-2h4a1 1 0 0 1 0 2z" fill="#992608"/></svg>