<svg id="Layer_3" height="512" viewBox="0 0 64 64" width="512" xmlns="http://www.w3.org/2000/svg" data-name="Layer 3"><path d="m33 2h-2a1 1 0 0 1 0-2h2a1 1 0 0 1 0 2z" fill="#e55421"/><path d="m55 7h-2a1 1 0 0 1 0-2h2a1 1 0 0 1 0 2z" fill="#0d8e85"/><path d="m59 17h-2a1 1 0 0 1 0-2h2a1 1 0 0 1 0 2z" fill="#e55421"/><path d="m14 4h-2a1 1 0 0 1 0-2h2a1 1 0 0 1 0 2z" fill="#0d8e85"/><path d="m8 14h-2a1 1 0 0 1 0-2h2a1 1 0 0 1 0 2z" fill="#e55421"/><path d="m32.429 37.213a1 1 0 0 1 -.98-.806l-3.095-15.348a10.3 10.3 0 0 1 8.458-12.041 10.22 10.22 0 0 1 12.166 8.077l.726 3.781a1 1 0 1 1 -1.964.377l-.726-3.781a8.234 8.234 0 0 0 -9.825-6.489 8.316 8.316 0 0 0 -6.871 9.693l2.9 14.366 16.616-3.217-1.349-6.688a1 1 0 1 1 1.964-.377l1.537 7.669a1 1 0 0 1 -.792 1.17l-17.444 3.318c-.064.012-1.258.296-1.321.296z" fill="#02483d"/><path d="m32.429 37.213c-.063 0-.981.169-1.045.156l-18.574-3.6a1 1 0 0 1 -.792-1.17l1.521-7.78a1 1 0 1 1 1.961.381l-1.33 6.8 16.616 3.217 2.9-14.547a8.314 8.314 0 0 0 -6.872-9.687 8.233 8.233 0 0 0 -9.825 6.489l-.746 3.886a1 1 0 1 1 -1.964-.377l.746-3.886a10.219 10.219 0 0 1 12.163-8.077 10.294 10.294 0 0 1 8.458 12.035l-3.091 15.529c-.095.476.345.631-.126.631z" fill="#aa3713"/><path d="m57 29.47-13.38 2.59-11.62 2.25v29.69l5.99-1.2 24.01-4.8z" fill="#55bd8d"/><g opacity=".3"><path d="m43.62 32.06-5.63 30.74-5.99 1.2v-29.69z" fill="#0d8e85"/></g><path d="m36.816 43.741a3.886 3.886 0 0 1 5.52-1.06l2.026 1.427 1.353-2.076a3.886 3.886 0 0 1 5.52-1.06 4.242 4.242 0 0 1 1.1 5.723l-3.092 4.744a4.062 4.062 0 0 1 -.391.78 4.064 4.064 0 0 1 -5.652 1.087 4.062 4.062 0 0 1 -.652-.579l-4.629-3.262a4.242 4.242 0 0 1 -1.103-5.724z" fill="#0d8e85"/><path d="m38 35.47-.03.13-5.97 28.4-27.08-5.42-2.92-.58 5-28.53z" fill="#e55421"/><path d="m28.075 43.741a3.886 3.886 0 0 0 -5.52-1.06l-2.026 1.427-1.353-2.076a3.886 3.886 0 0 0 -5.52-1.06 4.242 4.242 0 0 0 -1.1 5.723l3.092 4.744a4.062 4.062 0 0 0 .391.78 4.064 4.064 0 0 0 5.654 1.085 4.062 4.062 0 0 0 .652-.579l4.629-3.262a4.242 4.242 0 0 0 1.101-5.722z" fill="#eb8a67"/><path d="m38 35.47-.03.13-24.97-3.6c-4 1-3.58 4.81-4.3 8.3l-3.78 18.28-2.92-.58 5-28.53z" fill="#e3774a"/><g fill="#02483d"><path d="m53 36h-1a1 1 0 0 1 0-2h1a1 1 0 0 1 0 2z"/><path d="m48 36h-1a1 1 0 0 1 0-2h1a1 1 0 0 1 0 2z"/><path d="m28.354 21.059a10.3 10.3 0 0 1 8.458-12.041 10.22 10.22 0 0 1 12.166 8.077l.726 3.781a1 1 0 1 1 -1.964.377l-.726-3.781a8.234 8.234 0 0 0 -9.825-6.489 8.316 8.316 0 0 0 -6.871 9.693"/></g></svg>