<svg id="Layer_3" height="512" viewBox="0 0 64 64" width="512" xmlns="http://www.w3.org/2000/svg" data-name="Layer 3"><path d="m59.582 29.523a2.334 2.334 0 0 0 -.454 1.383 2.4 2.4 0 0 0 1.507 2.23 2.388 2.388 0 0 1 1.29 3.21l-5.151 11.138-10.9 1.032a6.206 6.206 0 0 0 -5.615 3.572l-4.13 11.912-7.339-3.665-1.837-.929-3.21-1.6 5.584-10.539a6.227 6.227 0 0 0 .785-2.467 6.127 6.127 0 0 0 -.63-3.375l-1.548-3.107 13.356-38.318h13.42a2.071 2.071 0 0 1 2.065 2.065v5.863a2.4 2.4 0 0 0 2.395 2.395h1.4a2.4 2.4 0 0 1 2.395 2.395v12.056z" fill="#e55421"/><path d="m56.774 24.774-4.129 2.065s6.194 7.226 0 11.355l-15.639 8.278a3.831 3.831 0 0 1 -3.768-.1l-1.177-.7-.609-.372a3.98 3.98 0 0 0 -1.342-.5 6.127 6.127 0 0 0 -.63-3.375l-1.547-3.1 13.357-38.325h9.29a35.5 35.5 0 0 1 3.148 3.1 10.445 10.445 0 0 1 .981 1.414 6.455 6.455 0 0 1 .578 5.605 8.265 8.265 0 0 1 -.578 1.239s8.259 6.19 2.065 13.416z" fill="#cc461d"/><path d="m48.928 31.178-4.923-3.809a2.065 2.065 0 0 1 .193-3.4l7.154-4.337a2.065 2.065 0 0 0 .193-3.4l-3.337-2.583a2.065 2.065 0 0 1 -.369-2.9l1.261-1.625a2.065 2.065 0 0 0 -.369-2.9l-5.712-4.419a2.065 2.065 0 0 0 -2.9.369l-1.26 1.633a2.065 2.065 0 0 1 -2.9.369l-3.5-2.712a2.064 2.064 0 0 0 -3.2.905l-2.977 7.908a2.065 2.065 0 0 1 -3.2.905l-2.907-2.255a2.065 2.065 0 0 0 -3.2.914l-4.52 12.165a2.065 2.065 0 0 0 .672 2.352l1.793 1.388a4.129 4.129 0 0 1 .527 6.045l-14.415 15.837 13.878 10.74 10.955-18.31a4.129 4.129 0 0 1 6.07-1.146l2.6 2.011a2.065 2.065 0 0 0 2.253.179l11.867-6.48a2.065 2.065 0 0 0 .273-3.444z" fill="#55bd8d"/><path d="m4.065 47.364 10.269 7.948 9.761-16.312a6.193 6.193 0 0 1 9.1-1.718l2.6 2.011 11.868-6.479-4.92-3.814a4.129 4.129 0 0 1 .385-6.8l7.154-4.338-3.338-2.583a4.129 4.129 0 0 1 -.737-5.793l1.263-1.625-5.714-4.422-1.265 1.633a4.134 4.134 0 0 1 -5.791.738l-3.5-2.71-2.977 7.907a4.13 4.13 0 0 1 -6.391 1.811l-2.916-2.257-4.524 12.164 1.792 1.387a6.2 6.2 0 0 1 .791 9.068z" fill="#55bd8d"/><g fill="#02483d"><path d="m23.741 33.032a1.032 1.032 0 0 1 -.825-1.651l12.384-16.516a1.032 1.032 0 0 1 1.655 1.235l-12.387 16.519a1.028 1.028 0 0 1 -.827.413z"/><path d="m22.432 26.065a1.032 1.032 0 0 1 -1.023-.9l-1.109-8.691a1.033 1.033 0 0 1 .9-1.154 1.045 1.045 0 0 1 1.154.894l1.104 8.686a1.033 1.033 0 0 1 -.894 1.154 1.143 1.143 0 0 1 -.132.011z"/><path d="m7.194 50.819a1.032 1.032 0 0 1 -.763-1.728l3.159-3.464a1.033 1.033 0 0 1 1.526 1.391l-3.159 3.464a1.028 1.028 0 0 1 -.763.337z"/><path d="m18.933 39.02a1.032 1.032 0 0 1 -.816-1.664l2.527-3.266a1.033 1.033 0 0 1 1.633 1.264l-2.526 3.266a1.034 1.034 0 0 1 -.818.4z"/><path d="m38.193 14.452a1.032 1.032 0 0 1 -.825-1.651l3.1-4.129a1.032 1.032 0 0 1 1.651 1.238l-3.1 4.129a1.028 1.028 0 0 1 -.826.413z"/></g><path d="m55.742 25.806h-2.065a1.032 1.032 0 0 1 0-2.065h2.065a1.032 1.032 0 1 1 0 2.065z" fill="#aa3713"/><path d="m49.548 43.355h-2.064a1.032 1.032 0 1 1 0-2.065h2.065a1.032 1.032 0 0 1 0 2.065z" fill="#aa3713"/><path d="m30.854 56.206-2.064 4.129-1.837-.929 2.065-4.129a1.029 1.029 0 0 1 1.837.929z" fill="#aa3713"/><path d="m39.226 32h-1.032a1.032 1.032 0 1 1 0-2.065h1.032a1.032 1.032 0 1 1 0 2.065z" fill="#02483d"/><path d="m35.1 32h-1.035a1.032 1.032 0 1 1 0-2.065h1.035a1.032 1.032 0 1 1 0 2.065z" fill="#02483d"/></svg>