<svg id="Layer_3" height="512" viewBox="0 0 64 64" width="512" xmlns="http://www.w3.org/2000/svg" data-name="Layer 3"><path d="m56 47v17h-47v-21a6 6 0 0 1 6-6h35a6 6 0 0 1 6 6" fill="#e55421"/><path d="m23 8h20v12h-20z" fill="#02483d"/><path d="m25 15h16v-5h-16z" fill="#02483d"/><path d="m25 0h16v8h-16z" fill="#55bd8d"/><path d="m27 5v-3h11v3z" fill="#55bd8d"/><g fill="#d6795c"><path d="m38 31v6l-5 4-5-4v-5.999z"/><path d="m19.55 15.62a1 1 0 0 0 -1.365 1.039l.519 4.673a3 3 0 0 0 2.981 2.668h1.315v-7z"/><path d="m46.45 15.62-3.45 1.38v7h1.315a3 3 0 0 0 2.985-2.669l.519-4.673a1 1 0 0 0 -1.369-1.038z"/></g><path d="m43 19v7c0 3.31-10 8-10 8s-.38-.18-1-.49c-2.53-1.29-9-4.85-9-7.51v-7a6 6 0 0 1 6-6h8a6 6 0 0 1 6 6z" fill="#eb8a67"/><path d="m41 25.96c-.21 1.12-3.91 3.78-8 5.82-1.25-.63-2.47-1.31-3.56-1.99-2.47-1.53-4.29-3.04-4.44-3.79v-7a4 4 0 0 1 4-4h8a4 4 0 0 1 4 4z" fill="#eb8a67"/><path d="m32 33.51c-2.53-1.29-9-4.85-9-7.51v-7a6 6 0 0 1 6-6v15.62a10.169 10.169 0 0 0 .44 1.17 12.661 12.661 0 0 0 2.56 3.72z" fill="#f79f84"/><path d="m41 0v8h-16v-3.1a17.405 17.405 0 0 0 2-.32 16.226 16.226 0 0 0 5.95-2.58 16.049 16.049 0 0 0 2.35-2z" fill="#075b4b"/><g opacity=".3"><path d="m15.3 37a7.552 7.552 0 0 0 -1.24 2.12 12.162 12.162 0 0 0 -.81 3.88v21h-4.25v-21a6 6 0 0 1 6-6z" fill="#e6e7e8"/></g><path d="m51 42h-1a1 1 0 0 1 0-2h1a1 1 0 0 1 0 2z" fill="#aa3713"/><path d="m47 42h-1a1 1 0 0 1 0-2h1a1 1 0 0 1 0 2z" fill="#aa3713"/><path d="m33 42a1 1 0 0 1 -.625-.219l-5-4a1 1 0 0 1 1.249-1.562l4.376 3.5 4.375-3.5a1 1 0 0 1 1.249 1.562l-5 4a1 1 0 0 1 -.624.219z" fill="#aa3713"/><path d="m30 21h-2a1 1 0 0 1 0-2h2a1 1 0 0 1 0 2z" fill="#02483d"/><path d="m38 21h-2a1 1 0 0 1 0-2h2a1 1 0 0 1 0 2z" fill="#02483d"/><path d="m40 47h-4a1 1 0 0 1 0-2h4a1 1 0 0 1 0 2z" fill="#aa3713"/><path d="m54 9h-42a1 1 0 0 1 0-2h42a1 1 0 0 1 0 2z" fill="#02483d"/><path d="m25 49a1 1 0 0 1 -.659-1.752l8-7a1 1 0 0 1 1.317 1.5l-8 7a1 1 0 0 1 -.658.252z" fill="#aa3713"/><path d="m47 60h-28a1 1 0 0 1 0-2h28a1 1 0 0 1 0 2z" fill="#02483d"/><path d="m33 64a1 1 0 0 1 -1-1v-4a1 1 0 0 1 2 0v4a1 1 0 0 1 -1 1z" fill="#02483d"/><path d="m19 64a1 1 0 0 1 -1-1v-14a1 1 0 0 1 2 0v14a1 1 0 0 1 -1 1z" fill="#aa3713"/><path d="m47 64a1 1 0 0 1 -1-1v-14a1 1 0 0 1 2 0v14a1 1 0 0 1 -1 1z" fill="#aa3713"/></svg>