<svg id="Layer_3" height="512" viewBox="0 0 64 64" width="512" xmlns="http://www.w3.org/2000/svg" data-name="Layer 3"><path d="m38 0h-12a16 16 0 0 0 -16 16v28c0 8.84 10 11 16 16h12c8-5 16-7.16 16-16v-28a16 16 0 0 0 -16-16z" fill="#eb8a67"/><g opacity=".3"><path d="m37 60h-11c-6-5-16-7.16-16-16v-28a16 16 0 0 1 16-16h2v43a18.84 18.84 0 0 0 4.65 12.03z" fill="#e6e7e8"/></g><path d="m54 16v7a16 16 0 0 0 -16-16h-12a16 16 0 0 0 -16 16v-7a16 16 0 0 1 16-16h12a16 16 0 0 1 16 16z" fill="#55bd8d"/><path d="m28.8 26.59a.983.983 0 0 1 -1.39.21 5.6 5.6 0 0 0 -6.02-.88c-1.47.63-2.78 1.19-3.94 1.68a54.126 54.126 0 0 0 -6.71 3.07 1.054 1.054 0 0 1 -.73.29h-.01v-2.2a72.084 72.084 0 0 1 6.67-3c1.16-.49 2.47-1.05 3.94-1.68a7.54 7.54 0 0 1 7.98 1.12.983.983 0 0 1 .21 1.39z" fill="#aa3713"/><path d="m54 28.76v2.24a.977.977 0 0 1 -.75-.34 20.45 20.45 0 0 0 -3.2-1.5c-1.61-.7-3.97-1.72-7.46-3.28-1.98-.89-3.94-.59-6 .93a1 1 0 0 1 -1.18-1.62 7.652 7.652 0 0 1 8-1.13c3.48 1.55 5.83 2.57 7.43 3.26 1.72.75 2.62 1.13 3.16 1.44z" fill="#aa3713"/><path d="m28.57 36.82a19.041 19.041 0 0 1 -6.36 2.66 15.378 15.378 0 0 1 -3.25.35 13.181 13.181 0 0 1 -8.96-3.46v-2.37a1.007 1.007 0 0 1 .71.29c7.3 7.3 16.34 1.16 16.72.89a1 1 0 0 1 1.14 1.64z" fill="#aa3713"/><path d="m54 34v2.37a13.181 13.181 0 0 1 -8.96 3.46 15.378 15.378 0 0 1 -3.25-.35 19.041 19.041 0 0 1 -6.36-2.66 1 1 0 0 1 1.14-1.64c.38.26 9.42 6.41 16.72-.89a1.007 1.007 0 0 1 .71-.29z" fill="#aa3713"/><path d="m34 14h-4a1 1 0 0 1 0-2h4a1 1 0 0 1 0 2z" fill="#e55421"/><path d="m20 34h-4a1 1 0 0 1 0-2h4a1 1 0 0 1 0 2z" fill="#e55421"/><path d="m28 28h-5a1 1 0 0 1 0-2h5a1 1 0 0 1 0 2z" fill="#aa3713"/><path d="m41 28h-5a1 1 0 0 1 0-2h5a1 1 0 0 1 0 2z" fill="#aa3713"/><path d="m48 34h-4a1 1 0 0 1 0-2h4a1 1 0 0 1 0 2z" fill="#e55421"/><g fill="#aa3713"><path d="m35.986 41.033-7.986-.033a1 1 0 0 1 -1-1v-22a1 1 0 0 1 2 0v21l5.986.025v-21a1 1 0 0 1 2 0v22a1 1 0 0 1 -1 1z"/><path d="m32 51a11.082 11.082 0 0 1 -6.6-2.2 1 1 0 0 1 1.2-1.6 9 9 0 0 0 10.8 0 1 1 0 1 1 1.2 1.6 11.09 11.09 0 0 1 -6.6 2.2z"/><path d="m4 64a1 1 0 0 1 -1-1v-26a1 1 0 0 1 2 0v26a1 1 0 0 1 -1 1z"/><path d="m4 34a1 1 0 0 1 -1-1v-6a1 1 0 0 1 1-1h3a1 1 0 0 1 0 2h-2v5a1 1 0 0 1 -1 1z"/><path d="m60 64a1 1 0 0 1 -1-1v-6a1 1 0 0 1 2 0v6a1 1 0 0 1 -1 1z"/><path d="m60 54a1 1 0 0 1 -1-1v-25h-2a1 1 0 0 1 0-2h3a1 1 0 0 1 1 1v26a1 1 0 0 1 -1 1z"/><path d="m4 28h-3a1 1 0 0 1 0-2h3a1 1 0 0 1 0 2z"/><path d="m63 28h-3a1 1 0 0 1 0-2h3a1 1 0 0 1 0 2z"/><path d="m37 57h-1a1 1 0 0 1 0-2h1a1 1 0 0 1 0 2z"/><path d="m32 57h-1a1 1 0 0 1 0-2h1a1 1 0 0 1 0 2z"/></g><path d="m42.279 16.008c-5.079-1.478-8.684 2.352-10.288 4.351-4.392-5.234-8.55-5.273-11.312-4.339a66.133 66.133 0 0 0 -9.366 3.926 15.024 15.024 0 0 1 14.687-11.946h12a15.025 15.025 0 0 1 14.695 11.981 60.74 60.74 0 0 0 -10.416-3.973zm-4.279-10.008h-12a17.013 17.013 0 0 0 -16 11.3v6.7a1 1 0 0 0 1-1c0-.2.02-.39.03-.58a53.039 53.039 0 0 1 10.29-4.5c3.3-1.13 6.55.35 9.67 4.38a3.049 3.049 0 0 0 .26.32.99.99 0 0 0 .75.35 1.016 1.016 0 0 0 .75-.34c.08-.09.2-.24.34-.43 1.83-2.38 4.72-5.41 8.63-4.27a50.7 50.7 0 0 1 11.25 4.5c.01.19.03.38.03.57a1 1 0 0 0 1 1v-6.7a17.013 17.013 0 0 0 -16-11.3z" fill="#02483d"/></svg>