<svg id="Layer_3" height="512" viewBox="0 0 64 64" width="512" xmlns="http://www.w3.org/2000/svg" data-name="Layer 3"><path d="m38 .017h-12a15.993 15.993 0 0 0 -16 16v28a16 16 0 0 0 16 16h12a16 16 0 0 0 16-16v-28a16 16 0 0 0 -16-16z" fill="#eb8a67"/><g opacity=".3"><path d="m32.6 60.017h-6.6a16 16 0 0 1 -16-16v-28a15.989 15.989 0 0 1 11.09-15.23l.08 2.09 1.67 48.56a7.134 7.134 0 0 0 4.39 6.34l.57.24z" fill="#e6e7e8"/></g><path d="m54 16.017v7a16 16 0 0 0 -16-16h-12a16 16 0 0 0 -16 16v-7a16 16 0 0 1 16-16h12a16 16 0 0 1 16 16z" fill="#55bd8d"/><ellipse cx="30" cy="35.517" fill="#e55421" rx="2" ry="1.5"/><g fill="#aa3713"><path d="m28.81 23.447a.994.994 0 0 1 -1.39.24c-2.08-1.46-4.03-1.7-5.98-.74-3.14 1.56-5.84 2.67-7.82 3.49a21.731 21.731 0 0 0 -2.9 1.31.955.955 0 0 1 -.72.33v-2.23c.55-.3 1.42-.67 2.86-1.26 1.95-.81 4.61-1.91 7.7-3.43a7.51 7.51 0 0 1 8.01.9.994.994 0 0 1 .24 1.39z"/><path d="m52.69 25.407a44.83 44.83 0 0 1 -9.18-4.25c-1.67-1-4.44-1.63-8.1 1.06a1 1 0 0 0 1.18 1.62c2.27-1.67 4.19-1.98 5.9-.96a47.2 47.2 0 0 0 9.55 4.42 12.086 12.086 0 0 1 1.27.47.968.968 0 0 0 .69.28v-2.16c-.33-.15-.75-.287-1.31-.48z"/><path d="m51.24 53.017a15.567 15.567 0 0 1 -1.62 2h-3.62a4 4 0 0 1 -4-4v-5.86c-2.25.28-7.25.86-10 .86a32.906 32.906 0 0 1 -7.33-.43c-.68-.11-1.53-.25-2.67-.41v5.84a4 4 0 0 1 -4 4h-3.62a15.567 15.567 0 0 1 -1.62-2h5.24a2.006 2.006 0 0 0 2-2v-7a1.037 1.037 0 0 1 .34-.76 1.016 1.016 0 0 1 .8-.23c1.76.25 2.95.44 3.84.58a30.912 30.912 0 0 0 7.02.41c3.4 0 10.79-.98 10.87-.99a1 1 0 0 1 1.13.99v7a2.006 2.006 0 0 0 2 2z"/><path d="m24.41 37.927a18.508 18.508 0 0 1 -6.82 1.41 10.551 10.551 0 0 1 -7.59-2.86v-2.46a1 1 0 0 1 .77.36c4.45 5.34 12.74 1.76 12.82 1.73a1 1 0 0 1 .82 1.82z"/><path d="m54 34.017v2.46a10.551 10.551 0 0 1 -7.59 2.86 18.508 18.508 0 0 1 -6.82-1.41 1 1 0 0 1 .82-1.82c.08.03 8.37 3.61 12.82-1.73a.99.99 0 0 1 .77-.36z"/><path d="m32 53.017a21.081 21.081 0 0 1 -11.555-3.5 1 1 0 1 1 1.109-1.664 18.818 18.818 0 0 0 20.891 0 1 1 0 0 1 1.109 1.664 21.077 21.077 0 0 1 -11.554 3.5z"/><path d="m42 26.017h-6a1 1 0 0 1 0-2h6a1 1 0 0 1 0 2z"/><path d="m28 26.017h-6a1 1 0 0 1 0-2h6a1 1 0 0 1 0 2z"/><path d="m36 41.017a1 1 0 0 1 0-2c1.626 0 3-.916 3-2 0-1.412-1.634-5-3-5a1 1 0 0 1 -1-1v-7.586l-3-3-3 3v7.586a1 1 0 0 1 -1 1c-1.366 0-3 3.588-3 5 0 1.084 1.374 2 3 2h4a1 1 0 0 1 0 2h-4c-2.757 0-5-1.794-5-4 0-1.785 1.56-5.889 4-6.812v-7.188a1 1 0 0 1 .293-.707l4-4a1 1 0 0 1 1.414 0l4 4a1 1 0 0 1 .293.707v7.183c2.44.924 4 5.027 4 6.812 0 2.211-2.243 4.005-5 4.005z"/><path d="m15 31.017a1 1 0 0 1 -1 1h-4v-2h4a1 1 0 0 1 1 1z"/><path d="m4 64a1 1 0 0 1 -1-1v-26a1 1 0 0 1 2 0v26a1 1 0 0 1 -1 1z"/><path d="m60 64a1 1 0 0 1 -1-1v-4a1 1 0 0 1 2 0v4a1 1 0 0 1 -1 1z"/><path d="m54 30.017v2h-4a1 1 0 0 1 0-2z"/><path d="m7 27h-6a1 1 0 0 0 0 2h2v4a1 1 0 0 0 2 0v-4h2a1 1 0 0 0 0-2z"/><path d="m63 27h-6a1 1 0 0 0 0 2h2v26a1 1 0 0 0 2 0v-26h2a1 1 0 0 0 0-2z"/></g><path d="m39 57.017h-1a1 1 0 0 1 0-2h1a1 1 0 0 1 0 2z" fill="#e55421"/><path d="m34 57.017h-1a1 1 0 0 1 0-2h1a1 1 0 0 1 0 2z" fill="#e55421"/><path d="m41.93 13.017a15.712 15.712 0 0 0 -9.93 4.55 15.828 15.828 0 0 0 -11-4.55 15.331 15.331 0 0 0 -7.712 2.075 14.988 14.988 0 0 1 12.712-7.075h12a14.988 14.988 0 0 1 12.741 7.123 15.278 15.278 0 0 0 -8.811-2.123zm-3.93-7h-12a17.039 17.039 0 0 0 -16 11.25v6.75a1 1 0 0 0 1-1 14.981 14.981 0 0 1 .61-4.21 13.968 13.968 0 0 1 9.39-3.79 14.124 14.124 0 0 1 10.25 4.66 1 1 0 0 0 1.5 0 14.049 14.049 0 0 1 9.32-4.66 13.871 13.871 0 0 1 10.32 3.8 14.911 14.911 0 0 1 .61 4.2 1 1 0 0 0 1 1v-6.75a17.039 17.039 0 0 0 -16-11.25z" fill="#02483d"/></svg>