<svg id="Layer_3" height="512" viewBox="0 0 64 64" width="512" xmlns="http://www.w3.org/2000/svg" data-name="Layer 3"><path d="m2 64v-6l6-22a6 6 0 0 1 6-6h32v34z" fill="#bcbec0"/><path d="m62 58v6h-42v-6l9-7 17-21h3.92a6.041 6.041 0 0 1 6.08 6z" fill="#e55421"/><g fill="#d6795c"><path d="m37 24.243v5.757l-5 6-5-6v-5.757z"/><path d="m22 17.453h-1.315a3 3 0 0 1 -2.985-2.669l-.519-4.673a1 1 0 0 1 1.369-1.038l3.45 1.38z"/><path d="m19.356 11.55.335 3.014a1 1 0 0 0 .309.618v-3.374z"/><path d="m42 17.453h1.315a3 3 0 0 0 2.985-2.669l.519-4.673a1 1 0 0 0 -1.369-1.038l-3.45 1.38z"/><path d="m44 11.808v3.374a1 1 0 0 0 .309-.618l.335-3.014z"/></g><path d="m42 6v13c0 3.31-10 8-10 8s-10-4.69-10-8v-13a5.99 5.99 0 0 1 5-5.91 5.47 5.47 0 0 1 1-.09h8a6 6 0 0 1 6 6z" fill="#eb8a67"/><path d="m40 18.96c-.21 1.12-3.91 3.78-8 5.82a41.614 41.614 0 0 1 -4-2.27c-2.24-1.43-3.86-2.81-4-3.51v-12a4 4 0 0 1 4-4h8a4 4 0 0 1 4 4z" fill="#eb8a67"/><path d="m32 27s-10-4.69-10-8v-13a6 6 0 0 1 6-6v20.08a7.038 7.038 0 0 0 2.06 4.98z" fill="#f9a991"/><path d="m29 41-4 5-2 10 2 5 4-5z" fill="#eb8a67"/><path d="m34 41 4 5 2 10-2 5-4-5z" fill="#eb8a67"/><path d="m36 55.3 1.417 1.771.5-1.261-1.788-8.94-.129-.17z" fill="#eb8a67"/><path d="m15 59a1 1 0 0 1 -1-1v-16a1 1 0 0 1 2 0v16a1 1 0 0 1 -1 1z" fill="#939598"/><path d="m29.042 14h-2.042a1 1 0 0 1 0-2h2.042a1 1 0 1 1 0 2z" fill="#02483d"/><path d="m36.958 14h-1.958a1 1 0 0 1 0-2h1.958a1 1 0 0 1 0 2z" fill="#02483d"/><path d="m20 64a1 1 0 0 1 -1-1v-4h-11a1 1 0 0 1 0-2h12a1 1 0 0 1 1 1v5a1 1 0 0 1 -1 1z" fill="#939598"/><path d="m43 64a1 1 0 0 1 -1-1v-5a1 1 0 0 1 1-1h13a1 1 0 0 1 0 2h-12v4a1 1 0 0 1 -1 1z" fill="#aa3713"/><path d="m50 59a1 1 0 0 1 -1-1v-12a1 1 0 0 1 2 0v12a1 1 0 0 1 -1 1z" fill="#aa3713"/><path d="m50 43.042a1 1 0 0 1 -1-1v-2.042a1 1 0 0 1 2 0v2.042a1 1 0 0 1 -1 1z" fill="#aa3713"/><path d="m29.021 0v4a1 1 0 1 1 -2 0v-3.91a5.47 5.47 0 0 1 1-.09z" fill="#e3774a"/><path d="m44 33v14a1 1 0 0 1 -2 0v-12.06l1.91-2.35a.946.946 0 0 1 .09.41z" fill="#aa3713"/><path d="m23 38h-1a1 1 0 0 1 0-2h1a1 1 0 0 1 0 2z" fill="#939598"/><path d="m18 38h-1a1 1 0 0 1 0-2h1a1 1 0 0 1 0 2z" fill="#939598"/></svg>