<svg id="Layer_3" height="512" viewBox="0 0 64 64" width="512" xmlns="http://www.w3.org/2000/svg" data-name="Layer 3"><path d="m14 11a1 1 0 0 1 -.177-1.984l49.019-8.854a1 1 0 0 1 .358 1.969l-49.02 8.854a1.016 1.016 0 0 1 -.18.015z" fill="#aa3713"/><path d="m14 17a1 1 0 0 1 -.123-1.992l49.023-6.128a1 1 0 1 1 .248 1.984l-49.02 6.128a1.089 1.089 0 0 1 -.128.008z" fill="#aa3713"/><path d="m26 42a1 1 0 0 1 -1-1v-8a1 1 0 0 1 2 0v8a1 1 0 0 1 -1 1z" fill="#e55421"/><g fill="#e3774a"><path d="m33 42.833a1 1 0 0 1 -1-1v-36.583a1 1 0 0 1 2 0v36.583a1 1 0 0 1 -1 1z"/><path d="m39 37.941a1 1 0 0 1 -1-1v-25.493a1 1 0 0 1 2 0v25.493a1 1 0 0 1 -1 1z"/><path d="m54.684 50h-29.809l5.949-7.8a13.65 13.65 0 0 1 2.91-2.27 13.871 13.871 0 0 1 7.09-1.93 14 14 0 0 1 13.86 12z"/><path d="m32.824 48v-4.95a11.619 11.619 0 0 1 2.56-1.75 11.89 11.89 0 0 1 5.44-1.3 12.035 12.035 0 0 1 10.42 6.08 11.2 11.2 0 0 1 .9 1.92z"/></g><path d="m32.824 46s11-8 16 4h-16z" fill="#e55421"/><g opacity=".3"><path d="m54.684 50h-29.809l5.949-7.8a13.65 13.65 0 0 1 2.91-2.27c.47.42 1.02.89 1.65 1.37a22.05 22.05 0 0 0 12.86 4.78h5.27a14.01 14.01 0 0 1 1.17 3.92z" fill="#c65634"/></g><path d="m6.824 50s1-7 6-7a8.613 8.613 0 0 1 8-5c3.506 0 6.485 2.731 8 4a21.1 21.1 0 0 1 5.858 8" fill="#e3774a"/><path d="m29.824 50c-9-11-17 0-17 0z" fill="#e55421"/><path d="m1.824 50 5.45 10.33.75 1.42a6 6 0 0 0 4.676 2.25h38.24a6 6 0 0 0 4.68-2.25l6.204-11.75z" fill="#55bd8d"/><path d="m61.824 50-6.2 11.75a6 6 0 0 1 -4.68 2.25h-38.244a6 6 0 0 1 -4.68-2.25l-.75-1.42h15.55c12.88.17 21.96-3.99 27.89-8.33.91-.67 1.75-1.34 2.51-2z" fill="#3a9165"/><path d="m26 30a1 1 0 0 1 -1-1v-15.363a1 1 0 0 1 2 0v15.363a1 1 0 0 1 -1 1z" fill="#e3774a"/><path d="m18 26h-2a1 1 0 0 1 0-2h2a1 1 0 0 1 0 2z" fill="#02483d"/><path d="m47 24h-2a1 1 0 0 1 0-2h2a1 1 0 0 1 0 2z" fill="#0d8e85"/><path d="m54.958 32h-1.958a1 1 0 0 1 0-2h1.958a1 1 0 0 1 0 2z" fill="#02483d"/><path d="m9.969 34h-2a1 1 0 0 1 0-2h2a1 1 0 0 1 0 2z" fill="#0d8e85"/><path d="m51 57h-1a1 1 0 0 1 0-2h1a1 1 0 0 1 0 2z" fill="#02483d"/><path d="m46 57h-1a1 1 0 0 1 0-2h1a1 1 0 0 1 0 2z" fill="#02483d"/></svg>