<svg id="Layer_3" height="512" viewBox="0 0 64 64" width="512" xmlns="http://www.w3.org/2000/svg" data-name="Layer 3"><path d="m58 23c-2 5.06-12 7-12 7h-28c-7-1-12-7-12-7l26-4.75z" fill="#02483d"/><path d="m32 31a1 1 0 0 1 -1-1v-10a1 1 0 0 1 2 0v10a1 1 0 0 1 -1 1z" fill="#02332a"/><path d="m25 31a1 1 0 0 1 -.815-.419l-5-7a1 1 0 1 1 1.628-1.162l5 7a1 1 0 0 1 -.813 1.581z" fill="#02332a"/><path d="m39 31a1 1 0 0 1 -.813-1.581l5-7a1 1 0 0 1 1.628 1.162l-5 7a1 1 0 0 1 -.815.419z" fill="#02332a"/><path d="m32 10a1 1 0 0 1 -1-1v-8a1 1 0 0 1 2 0v8a1 1 0 0 1 -1 1z" fill="#e55421"/><path d="m38.32 9.85-1.27-.85-5.05.06-5-.06-21 14c.3.07.65.15 1.04.23 3.39.67 10.08 1.35 15.96-.17a30 30 0 0 0 9-4 32.879 32.879 0 0 0 10 4 42.958 42.958 0 0 0 16-.06z" fill="#55bd8d"/><g opacity=".3"><path d="m38.32 9.85c-.54.45-1.1.88-1.66 1.3-7.64 5.73-16.55 8.96-23.59 10.78-2.23.56-4.27.99-6.03 1.3-.39-.08-.74-.16-1.04-.23l21-14 5 .06 5.05-.06z" fill="#e6e7e8"/></g><path d="m31 14h-1a1 1 0 0 1 0-2h1a1 1 0 0 1 0 2z" fill="#0d8e85"/><path d="m26 14h-1a1 1 0 0 1 0-2h1a1 1 0 0 1 0 2z" fill="#0d8e85"/><path d="m18 29h28v27h-28z" fill="#e3774a"/><path d="m20 54h24v-23h-24z" fill="#e3774a"/><g opacity=".5"><path d="m18 52h28v4h-28z" fill="#d15f37"/></g><path d="m31.915 29h14.085v27h-14.085z" fill="#e55421"/><path d="m0 62h64v2h-64z" fill="#02483d"/><g fill="#aa3713"><path d="m25 40a1 1 0 0 1 -1-1v-5a1 1 0 0 1 2 0v5a1 1 0 0 1 -1 1z"/><path d="m39 40a1 1 0 0 1 -1-1v-5a1 1 0 0 1 2 0v5a1 1 0 0 1 -1 1z"/><path d="m32 40a1 1 0 0 1 -1-1v-5a1 1 0 0 1 2 0v5a1 1 0 0 1 -1 1z"/><path d="m25 49a1 1 0 0 1 -1-1v-5a1 1 0 0 1 2 0v5a1 1 0 0 1 -1 1z"/><path d="m39 49a1 1 0 0 1 -1-1v-5a1 1 0 0 1 2 0v5a1 1 0 0 1 -1 1z"/><path d="m32 49a1 1 0 0 1 -1-1v-5a1 1 0 0 1 2 0v5a1 1 0 0 1 -1 1z"/><path d="m25 57a1 1 0 0 1 -1-1v-4a1 1 0 0 1 2 0v4a1 1 0 0 1 -1 1z"/><path d="m39 57a1 1 0 0 1 -1-1v-4a1 1 0 0 1 2 0v4a1 1 0 0 1 -1 1z"/><path d="m32 57a1 1 0 0 1 -1-1v-4a1 1 0 0 1 2 0v4a1 1 0 0 1 -1 1z"/></g><path d="m10 56h44v6h-44z" fill="#e3774a"/><path d="m50 60h-1a1 1 0 0 1 0-2h1a1 1 0 0 1 0 2z" fill="#e55421"/><path d="m45 60h-1a1 1 0 0 1 0-2h1a1 1 0 0 1 0 2z" fill="#e55421"/><path d="m51 40h-38a1 1 0 0 1 0-2h38a1 1 0 0 1 0 2z" fill="#02483d"/><path d="m51 49h-38a1 1 0 0 1 0-2h38a1 1 0 0 1 0 2z" fill="#02483d"/></svg>