<svg id="Layer_3" height="512" viewBox="0 0 64 64" width="512" xmlns="http://www.w3.org/2000/svg" data-name="Layer 3"><path d="m32 10a1 1 0 0 1 -1-1v-8a1 1 0 0 1 2 0v8a1 1 0 0 1 -1 1z" fill="#e55421"/><path d="m12 52h40v11h-40z" fill="#e55421"/><path d="m17 39h31v6h-31z" fill="#e55421"/><path d="m19 43h27v-2h-27z" fill="#e55421"/><path d="m21 26h23v6h-23z" fill="#e55421"/><path d="m23 30h19v-2h-19z" fill="#e55421"/><path d="m21 14h23v6h-23z" fill="#e55421"/><path d="m23 18h19v-2h-19z" fill="#e55421"/><path d="m52 20-2 3-.42.63a5.33 5.33 0 0 1 -4.43 2.37h-26.3a5.33 5.33 0 0 1 -4.43-2.37l-.42-.63-2-3z" fill="#55bd8d"/><path d="m48.67 9-2.01 3-.01.02a4.429 4.429 0 0 1 -3.7 1.98h-21.9a4.429 4.429 0 0 1 -3.7-1.98l-.01-.02-2.01-3z" fill="#55bd8d"/><path d="m50 23-.42.63a5.33 5.33 0 0 1 -4.43 2.37h-26.3a5.33 5.33 0 0 1 -4.43-2.37l-.42-.63z" fill="#02483d"/><path d="m46.66 12-.01.02a4.429 4.429 0 0 1 -3.7 1.98h-21.9a4.429 4.429 0 0 1 -3.7-1.98l-.01-.02z" fill="#02483d"/><g fill="#aa3713"><path d="m18 64a1 1 0 0 1 -1-1v-6a1 1 0 0 1 2 0v6a1 1 0 0 1 -1 1z"/><path d="m25 64a1 1 0 0 1 -1-1v-6a1 1 0 0 1 2 0v6a1 1 0 0 1 -1 1z"/><path d="m32 64a1 1 0 0 1 -1-1v-6a1 1 0 0 1 2 0v6a1 1 0 0 1 -1 1z"/><path d="m25 46a1 1 0 0 1 -1-1v-3a1 1 0 0 1 2 0v3a1 1 0 0 1 -1 1z"/><path d="m32 46a1 1 0 0 1 -1-1v-3a1 1 0 0 1 2 0v3a1 1 0 0 1 -1 1z"/><path d="m29 33a1 1 0 0 1 -1-1v-3a1 1 0 0 1 2 0v3a1 1 0 0 1 -1 1z"/><path d="m36 33a1 1 0 0 1 -1-1v-3a1 1 0 0 1 2 0v3a1 1 0 0 1 -1 1z"/><path d="m39 46a1 1 0 0 1 -1-1v-3a1 1 0 0 1 2 0v3a1 1 0 0 1 -1 1z"/><path d="m39 64a1 1 0 0 1 -1-1v-6a1 1 0 0 1 2 0v6a1 1 0 0 1 -1 1z"/><path d="m46 64a1 1 0 0 1 -1-1v-6a1 1 0 0 1 2 0v6a1 1 0 0 1 -1 1z"/></g><path d="m55.33 32-2.33 3.5-.49.73a6.207 6.207 0 0 1 -5.17 2.77h-30.68a6.207 6.207 0 0 1 -5.17-2.77l-.49-.73-2.33-3.5z" fill="#55bd8d"/><path d="m53 35.5-.49.73a6.207 6.207 0 0 1 -5.17 2.77h-30.68a6.207 6.207 0 0 1 -5.17-2.77l-.49-.73z" fill="#02483d"/><path d="m62 45-3.43 4-.2.23a8.789 8.789 0 0 1 -6.65 2.77h-39.44a8.789 8.789 0 0 1 -6.65-2.77l-.2-.23-3.43-4z" fill="#55bd8d"/><path d="m58.57 49-.2.23a8.789 8.789 0 0 1 -6.65 2.77h-39.44a8.789 8.789 0 0 1 -6.65-2.77l-.2-.23z" fill="#02483d"/><path d="m52 48h-1a1 1 0 0 1 0-2h1a1 1 0 0 1 0 2z" fill="#02483d"/><path d="m47 48h-1a1 1 0 0 1 0-2h1a1 1 0 0 1 0 2z" fill="#02483d"/><path d="m63 64h-3a1 1 0 0 1 0-2h3a1 1 0 0 1 0 2z" fill="#02483d"/><path d="m56 64h-55a1 1 0 0 1 0-2h55a1 1 0 0 1 0 2z" fill="#02483d"/></svg>