<svg id="Layer_3" height="512" viewBox="0 0 64 64" width="512" xmlns="http://www.w3.org/2000/svg" data-name="Layer 3"><path d="m20 7a1 1 0 0 1 -1-1v-5a1 1 0 0 1 2 0v5a1 1 0 0 1 -1 1z" fill="#0d8e85"/><path d="m44 7a1 1 0 0 1 -1-1v-5a1 1 0 0 1 2 0v5a1 1 0 0 1 -1 1z" fill="#0d8e85"/><path d="m64 47v17h-64v-17" fill="#eb8a67"/><path d="m18 48h7v14h-7z" fill="#e3774a"/><path d="m39 48h7v14h-7z" fill="#e3774a"/><path d="m13 25c-8-2-11-12-11-12h11z" fill="#02483d"/><path d="m4.978 15a16.7 16.7 0 0 0 5.756 6.888l-.574-6.888z" fill="#02483d"/><path d="m62 13s-3 10-11 12v-8" fill="#02483d"/><path d="m13 19v9h38v-9" fill="#eb8a67"/><path d="m13 19h38v4.5h-38z" fill="#e3774a"/><path d="m10 36h44v12h-44z" fill="#eb8a67"/><path d="m12 46h40v-8h-40z" fill="#eb8a67"/><path d="m10 36h44v4h-44z" fill="#e3774a"/><path d="m28 48h8v-8h-8z" fill="#aa3713"/><path d="m45 13v-7h-26v7h-17l4.61 3 4.6 3a7.992 7.992 0 0 0 3.83.98h33.92a7.992 7.992 0 0 0 3.83-.98l9.21-6z" fill="#55bd8d"/><g opacity=".3"><path d="m41.31 6a62.1 62.1 0 0 1 -14.68 2c-.98.03-1.88.05-2.65.05a2.992 2.992 0 0 0 -2.98 3v1.95a3 3 0 0 1 -3 3h-11.39l-4.61-3h17v-7z" fill="#e6e7e8"/></g><path d="m41 13h-1a1 1 0 0 1 0-2h1a1 1 0 0 1 0 2z" fill="#0d8e85"/><path d="m36 13h-1a1 1 0 0 1 0-2h1a1 1 0 0 1 0 2z" fill="#0d8e85"/><path d="m56 55h8v2h-8z" fill="#aa3713"/><path d="m32 29a1 1 0 0 1 -1-1v-5a1 1 0 0 1 2 0v5a1 1 0 0 1 -1 1z" fill="#e55421"/><path d="m23 29a1 1 0 0 1 -1-1v-5a1 1 0 0 1 2 0v5a1 1 0 0 1 -1 1z" fill="#e55421"/><path d="m42 29a1 1 0 0 1 -1-1v-5a1 1 0 0 1 2 0v5a1 1 0 0 1 -1 1z" fill="#e55421"/><path d="m22 49a1 1 0 0 1 -1-1v-6a1 1 0 0 1 2 0v6a1 1 0 0 1 -1 1z" fill="#e55421"/><path d="m16 49a1 1 0 0 1 -1-1v-6a1 1 0 0 1 2 0v6a1 1 0 0 1 -1 1z" fill="#e55421"/><path d="m42 49a1 1 0 0 1 -1-1v-6a1 1 0 0 1 2 0v6a1 1 0 0 1 -1 1z" fill="#e55421"/><path d="m48 49a1 1 0 0 1 -1-1v-6a1 1 0 0 1 2 0v6a1 1 0 0 1 -1 1z" fill="#e55421"/><g fill="#aa3713"><path d="m0 47h64v2h-64z"/><path d="m0 61.938h64v2h-64z"/><path d="m51 57h-1a1 1 0 0 1 0-2h1a1 1 0 0 1 0 2z"/><path d="m0 55h3v2h-3z"/><path d="m56 57h-1a1 1 0 0 1 0-2h1a1 1 0 0 1 0 2z"/><path d="m46 57h-44a1 1 0 0 1 0-2h44a1 1 0 0 1 0 2z"/><path d="m24 48h2v16h-2z"/><path d="m38 48h2v16h-2z"/></g><path d="m62 36h-60l11-8h38l1.48 1.08z" fill="#55bd8d"/><g opacity=".3"><path d="m52.48 29.08c-9.1.1-23.81.37-32.38.92-.82.06-1.58.11-2.27.17a19.7 19.7 0 0 0 -6.8 1.74 15.7 15.7 0 0 0 -5.44 4.09h-3.59l11-8h38z" fill="#e6e7e8"/></g></svg>