<svg id="Layer_3" height="512" viewBox="0 0 64 64" width="512" xmlns="http://www.w3.org/2000/svg" data-name="Layer 3"><path d="m0 41h64v11h-64z" fill="#bf4a2b"/><path d="m62 13s-3 10-11 12h-38c-8-2-11-12-11-12" fill="#02483d"/><path d="m12 16h40v16h-40z" fill="#e55421"/><g opacity=".5"><path d="m52 18v5.32l-2 .93-.16.07a2.013 2.013 0 0 1 -.84.18h-34a2.013 2.013 0 0 1 -.84-.18l-.16-.07-2-.93v-5.32z" fill="#aa3713"/></g><path d="m12.28 41h39.72v11h-39.72z" fill="#e55421"/><g opacity=".3"><path d="m12.28 41h39.72v6.5h-39.72z" fill="#aa3713"/></g><g fill="#aa3713"><path d="m28 33a1 1 0 0 1 -1-1v-13a1 1 0 0 1 2 0v13a1 1 0 0 1 -1 1z"/><path d="m36 33a1 1 0 0 1 -1-1v-13a1 1 0 0 1 2 0v13a1 1 0 0 1 -1 1z"/><path d="m44 33a1 1 0 0 1 -1-1v-13a1 1 0 0 1 2 0v13a1 1 0 0 1 -1 1z"/><path d="m20 33a1 1 0 0 1 -1-1v-13a1 1 0 0 1 2 0v13a1 1 0 0 1 -1 1z"/><path d="m39 53a1 1 0 0 1 -1-1v-11a1 1 0 0 1 2 0v11a1 1 0 0 1 -1 1z"/><path d="m25 53a1 1 0 0 1 -1-1v-11a1 1 0 0 1 2 0v11a1 1 0 0 1 -1 1z"/><path d="m5 53a1 1 0 0 1 -1-1v-6a1 1 0 0 1 2 0v6a1 1 0 0 1 -1 1z"/><path d="m59 53a1 1 0 0 1 -1-1v-6a1 1 0 0 1 2 0v6a1 1 0 0 1 -1 1z"/></g><path d="m20 7a1 1 0 0 1 -1-1v-5a1 1 0 0 1 2 0v5a1 1 0 0 1 -1 1z" fill="#0d8e85"/><path d="m44 7a1 1 0 0 1 -1-1v-5a1 1 0 0 1 2 0v5a1 1 0 0 1 -1 1z" fill="#0d8e85"/><path d="m62 13-13 6h-34l-13-6h17v-7h26v7z" fill="#55bd8d"/><g opacity=".3"><path d="m41.31 6a62.1 62.1 0 0 1 -14.68 2c-.98.03-1.88.05-2.65.05a2.992 2.992 0 0 0 -2.98 3v1.95a3 3 0 0 1 -3 3h-9.5l-6.5-3h17v-7z" fill="#e6e7e8"/></g><path d="m31 13h-1a1 1 0 0 1 0-2h1a1 1 0 0 1 0 2z" fill="#02483d"/><path d="m26 13h-1a1 1 0 0 1 0-2h1a1 1 0 0 1 0 2z" fill="#02483d"/><path d="m62 32-1.33 2-2.3 3.44a8 8 0 0 1 -6.65 3.56h-39.44a8 8 0 0 1 -6.57-3.44c-.03-.04-.05-.08-.08-.12l-3.63-5.44z" fill="#55bd8d"/><g opacity=".3"><path d="m62 32-1.33 2h-41.67a31.643 31.643 0 0 0 -11.43 2.7c-.65.28-1.27.56-1.86.86-.03-.04-.05-.08-.08-.12l-3.63-5.44z" fill="#e6e7e8"/></g><path d="m49 38h-1a1 1 0 0 1 0-2h1a1 1 0 0 1 0 2z" fill="#02483d"/><path d="m45 38h-1a1 1 0 0 1 0-2h1a1 1 0 0 1 0 2z" fill="#02483d"/><path d="m0 52h64v12h-64z" fill="#eb8a67"/><path d="m63 61h-6v-4a1 1 0 0 0 -1-1h-3v-3a1 1 0 0 0 -2 0v3h-5a1 1 0 0 0 0 2h9v3h-3a1 1 0 0 0 0 2h11a1 1 0 0 0 0-2z" fill="#e55421"/><path d="m48 61h-39v-3h33a1 1 0 0 0 0-2h-29v-3a1 1 0 0 0 -2 0v3h-3a1 1 0 0 0 -1 1v4h-6a1 1 0 0 0 0 2h47a1 1 0 0 0 0-2z" fill="#e55421"/></svg>