<svg id="Layer_3" height="512" viewBox="0 0 64 64" width="512" xmlns="http://www.w3.org/2000/svg" data-name="Layer 3"><path d="m62 13s-3 10-11 12h-38c-8-2-11-12-11-12" fill="#02483d"/><path d="m12 16h40v19h-40z" fill="#eb8a67"/><path d="m32 16h20v19h-20z" fill="#e55421"/><g opacity=".5"><path d="m12 18h40v6.5h-40z" fill="#e55421"/></g><g fill="#aa3713"><path d="m52 55h-40a1 1 0 0 1 -1-1v-13a1 1 0 0 1 2 0v12h38v-12a1 1 0 0 1 2 0v13a1 1 0 0 1 -1 1z"/><path d="m28 36a1 1 0 0 1 -1-1v-16a1 1 0 0 1 2 0v16a1 1 0 0 1 -1 1z"/><path d="m36 36a1 1 0 0 1 -1-1v-16a1 1 0 0 1 2 0v16a1 1 0 0 1 -1 1z"/><path d="m44 36a1 1 0 0 1 -1-1v-16a1 1 0 0 1 2 0v16a1 1 0 0 1 -1 1z"/><path d="m20 36a1 1 0 0 1 -1-1v-16a1 1 0 0 1 2 0v16a1 1 0 0 1 -1 1z"/><path d="m28 53a1 1 0 0 1 -1-1v-11a1 1 0 0 1 2 0v11a1 1 0 0 1 -1 1z"/><path d="m36 53a1 1 0 0 1 -1-1v-11a1 1 0 0 1 2 0v11a1 1 0 0 1 -1 1z"/><path d="m44 53a1 1 0 0 1 -1-1v-11a1 1 0 0 1 2 0v11a1 1 0 0 1 -1 1z"/><path d="m20 53a1 1 0 0 1 -1-1v-11a1 1 0 0 1 2 0v11a1 1 0 0 1 -1 1z"/><path d="m8 35h48v6h-48z"/></g><path d="m0 52h64v12h-64z" fill="#e55421"/><path d="m64 59v5h-64v-5a6.227 6.227 0 0 1 3.73 1.15 4.216 4.216 0 0 0 2.66.85 4.247 4.247 0 0 0 2.67-.85 6.2 6.2 0 0 1 3.73-1.15 6.228 6.228 0 0 1 3.73 1.15 4.269 4.269 0 0 0 2.67.85 4.269 4.269 0 0 0 2.67-.85 6.624 6.624 0 0 1 7.46 0 4.226 4.226 0 0 0 2.67.85 4.269 4.269 0 0 0 2.67-.85 6.608 6.608 0 0 1 7.45 0 4.269 4.269 0 0 0 2.67.85 4.226 4.226 0 0 0 2.67-.85 6.64 6.64 0 0 1 7.47 0 4.634 4.634 0 0 0 5.35 0 6.2 6.2 0 0 1 3.73-1.15z" fill="#55bd8d"/><path d="m45 13v-7h-26v7h-17l13 6h34l13-6z" fill="#55bd8d"/><g opacity=".3"><path d="m41.31 6a62.1 62.1 0 0 1 -14.68 2c-.98.03-1.88.05-2.65.05a2.992 2.992 0 0 0 -2.98 3v1.95a3 3 0 0 1 -3 3h-9.5l-6.5-3h17v-7z" fill="#e6e7e8"/></g><path d="m31 13h-1a1 1 0 0 1 0-2h1a1 1 0 0 1 0 2z" fill="#02483d"/><path d="m26 13h-1a1 1 0 0 1 0-2h1a1 1 0 0 1 0 2z" fill="#02483d"/></svg>