<svg id="Layer_3" height="512" viewBox="0 0 64 64" width="512" xmlns="http://www.w3.org/2000/svg" data-name="Layer 3"><path d="m29.61 1.78a2.956 2.956 0 0 0 -2.61-1.78 3.279 3.279 0 0 0 -3 3.5 3.716 3.716 0 0 0 1.12 2.72 2.709 2.709 0 0 0 1.88.78 3.279 3.279 0 0 0 3-3.5 3.915 3.915 0 0 0 -.39-1.72z" fill="#55bd8d"/><g opacity=".3"><path d="m30 3.5a3.279 3.279 0 0 1 -3 3.5 2.709 2.709 0 0 1 -1.88-.78 7.311 7.311 0 0 0 4.49-4.44 3.915 3.915 0 0 1 .39 1.72z" fill="#02483d"/></g><path d="m15 23h-2a1 1 0 0 1 0-2h2a1 1 0 0 1 0 2z" fill="#0d8e85"/><path d="m21 15h-2a1 1 0 0 1 0-2h2a1 1 0 0 1 0 2z" fill="#e55421"/><path d="m30 18h-2a1 1 0 0 1 0-2h2a1 1 0 0 1 0 2z" fill="#55bd8d"/><path d="m37 12h-2a1 1 0 0 1 0-2h2a1 1 0 0 1 0 2z" fill="#0d8e85"/><path d="m55.515 12.393-5-3a1 1 0 1 0 -1.029 1.715l1.467.88-4.284 6.194a1 1 0 1 0 1.645 1.137l4.357-6.3 1.815 1.089a1 1 0 0 0 1.029-1.715z" fill="#aa3713"/><path d="m54 40h-43s3.97-15.87 25.75-15.99c1.08-2.81 3.4-5.69 8.25-7.01l2.49 1.5 2.51 1.5s.51 5.14-1.78 9.16a14.652 14.652 0 0 1 5.61 8.84 11.729 11.729 0 0 1 .17 2z" fill="#e3774a"/><path d="m7 40v15a8.267 8.267 0 0 0 .06 1c.49 3.95 3.86 8 7.94 8h34a8.024 8.024 0 0 0 8-8v-16z" fill="#55bd8d"/><path d="m54 40h-16a14.74 14.74 0 0 0 4-5c1.35-3.25 0-7 0-7l1.8-3.11 3.69-6.39 2.51 1.5s.51 5.14-1.78 9.16a12.8 12.8 0 0 1 5.78 10.84z" fill="#c65634"/><path d="m57 56v-16h-15v11.775a8 8 0 0 1 -6.034 7.755l-17.633 4.47h30.667a8 8 0 0 0 8-8z" fill="#46a575"/><path d="m20 41a1 1 0 0 1 -.948-1.316 14.357 14.357 0 0 1 7.577-8.612 1 1 0 0 1 .745 1.856 12.569 12.569 0 0 0 -6.426 7.389 1 1 0 0 1 -.948.683z" fill="#e55421"/><g fill="#02483d"><path d="m18 46h-1a1 1 0 0 1 0-2h1a1 1 0 0 1 0 2z"/><path d="m14 46h-1a1 1 0 0 1 0-2h1a1 1 0 0 1 0 2z"/><path d="m63 41h-32a1 1 0 0 1 0-2h32a1 1 0 0 1 0 2z"/><path d="m27 41h-26a1 1 0 0 1 0-2h26a1 1 0 0 1 0 2z"/></g></svg>