<svg id="Layer_3" height="512" viewBox="0 0 64 64" width="512" xmlns="http://www.w3.org/2000/svg" data-name="Layer 3"><path d="m30 4.025a1 1 0 0 1 -1-1v-2a1 1 0 0 1 2 0v2a1 1 0 0 1 -1 1z" fill="#aa3713"/><path d="m35 4.025a1 1 0 0 1 -1-1v-2a1 1 0 0 1 2 0v2a1 1 0 0 1 -1 1z" fill="#aa3713"/><path d="m28 13.807h9v5.218h-9z" fill="#e3774a"/><path d="m48 30.025h5a5 5 0 0 1 5 5v25h-52v-25a5 5 0 0 1 5-5h2" fill="#55bd8d"/><path d="m13 45.025h38v15h-38z" fill="#0d8e85"/><path d="m40 21.025v20h-16v-20a2.006 2.006 0 0 1 2-2h12a2.006 2.006 0 0 1 2 2z" fill="#e55421"/><path d="m26 39.025h12v-18h-12z" fill="#e55421"/><path d="m40 37.025v2.575a1.526 1.526 0 0 1 -1.6 1.429h-12.8a1.526 1.526 0 0 1 -1.6-1.429v-2.575z" fill="#aa3713"/><path d="m37 4.075v3.95h-9v-3.95a1.541 1.541 0 0 1 1.54-1.54h5.92a1.513 1.513 0 0 1 1.32.76 1.478 1.478 0 0 1 .22.78z" fill="#e55421"/><path d="m24 21.025v12h-11v-11.5h5l2 3.5z" fill="#e55421"/><g opacity=".3"><path d="m40 31.025v7h-5v-2l5-10z" fill="#aa3713"/></g><path d="m40 27.025v8h9v-7z" fill="#e55421"/><path d="m45 45.025v10h-26v-10a4 4 0 0 1 4-4h18a4.01 4.01 0 0 1 4 4z" fill="#e55421"/><path d="m43 53.025h-22v-8a2.184 2.184 0 0 1 .03-.36 2.015 2.015 0 0 1 1.97-1.64h18a2.006 2.006 0 0 1 2 2z" fill="#e55421"/><path d="m22.375 55.025h7v5h-7z" fill="#aa3713"/><path d="m34 55.025h7v5h-7z" fill="#aa3713"/><g opacity=".15"><path d="m36.78 3.295a15.729 15.729 0 0 0 -8.78 1.35v-.57a1.541 1.541 0 0 1 1.54-1.54h5.92a1.513 1.513 0 0 1 1.32.76z" fill="#e6e7e8"/></g><path d="m28 8.025v5.782l4.998 1.218 4.002-1.218v-5.782z" fill="#eb8a67"/><g opacity=".3"><path d="m24 29.035v3.99h-11v-7l.09.27a3.987 3.987 0 0 0 3.79 2.74z" fill="#aa3713"/></g><g opacity=".15"><path d="m44.46 43.025h-19.29a6 6 0 0 0 -3.84 1.39l-.3.25-2.03 1.69v-1.33a4 4 0 0 1 4-4h18a3.98 3.98 0 0 1 3.46 2z" fill="#e6e7e8"/></g><path d="m13 8.025h-2a1 1 0 0 1 0-2h2a1 1 0 0 1 0 2z" fill="#55bd8d"/><path d="m54 4.025h-2a1 1 0 0 1 0-2h2a1 1 0 0 1 0 2z" fill="#55bd8d"/><path d="m14 23.025a1 1 0 0 1 -.782-.375l-4-5a1 1 0 0 1 1.563-1.25l4 5a1 1 0 0 1 -.781 1.625z" fill="#eb8a67"/><path d="m33 30.023a1 1 0 0 1 -.962-1.273c.022-.077 2.259-7.517 11.554-6.769a13.3 13.3 0 0 1 11.55-3.946 1 1 0 1 1 -.283 1.979 11.4 11.4 0 0 0 -10.078 3.636.976.976 0 0 1 -.892.369c-8.011-.889-9.855 5.033-9.93 5.285a1 1 0 0 1 -.959.719z" fill="#0d8e85"/><path d="m0 59.025h64v4.975h-64z" fill="#02483d"/><path d="m48 29.025a1 1 0 0 1 -1-1v-3a1 1 0 0 1 2 0v3a1 1 0 0 1 -1 1z" fill="#eb8a67"/><g fill="#aa3713"><path d="m41 46.025h-1a1 1 0 0 1 0-2h1a1 1 0 0 1 0 2z"/><path d="m36 46.025h-1a1 1 0 0 1 0-2h1a1 1 0 0 1 0 2z"/><path d="m28 6.025h9v2h-9z"/></g></svg>