<svg id="Layer_3" height="512" viewBox="0 0 64 64" width="512" xmlns="http://www.w3.org/2000/svg" data-name="Layer 3"><path d="m32 15a1 1 0 0 1 -1-1v-13a1 1 0 0 1 2 0v13a1 1 0 0 1 -1 1z" fill="#e3774a"/><path d="m46 38h-11a1 1 0 0 1 0-2h10v-1a5.773 5.773 0 0 1 5.5-6 5.773 5.773 0 0 1 5.5 6 1 1 0 0 1 -2 0 3.78 3.78 0 0 0 -3.5-4 3.78 3.78 0 0 0 -3.5 4v2a1 1 0 0 1 -1 1z" fill="#09d3bf"/><path d="m62 36a1 1 0 0 1 -1-1 2.5 2.5 0 0 0 -5 0 1 1 0 0 1 -2 0 4.5 4.5 0 0 1 9 0 1 1 0 0 1 -1 1z" fill="#09d3bf"/><path d="m1 64a1 1 0 0 1 -.006-2l14.979-.09a1 1 0 1 1 .012 2l-14.979.09z" fill="#aa3713"/><path d="m63 64h-.006l-15.018-.09a1 1 0 0 1 .006-2h.006l15.018.09a1 1 0 0 1 -.006 2z" fill="#aa3713"/><path d="m36 14h-8l-1 5h10z" fill="#e55421"/><path d="m29 29h6v26h-6z" fill="#eb8a67"/><path d="m16 64v-9h32v9" fill="#e3774a"/><path d="m25 19h14v10h-14z" fill="#e3774a"/><g opacity=".5"><path d="m29 29h6v6h-6z" fill="#aa3713"/></g><path d="m25 62h-2a1 1 0 0 1 0-2h2a1 1 0 0 1 0 2z" fill="#e55421"/><path d="m33 62h-2a1 1 0 0 1 0-2h2a1 1 0 0 1 0 2z" fill="#e55421"/><g fill="#09d3bf"><path d="m16 16h-4a1 1 0 0 1 0-2h4a1 1 0 0 1 0 2z"/><path d="m9 43h-8a1 1 0 0 1 0-2h7v-1a6 6 0 0 1 11.917-1h3.083a1 1 0 0 1 0 2h-4a1 1 0 0 1 -1-1 4 4 0 0 0 -8 0v2a1 1 0 0 1 -1 1z"/><path d="m60 47a1 1 0 0 1 -1-1 2.5 2.5 0 0 0 -5 0 1 1 0 0 1 -2 0 4.5 4.5 0 0 1 9 0 1 1 0 0 1 -1 1z"/></g><path d="m38 48h-12a1 1 0 0 1 0-2h12a1 1 0 0 1 0 2z" fill="#e55421"/></svg>