<svg id="Layer_3" height="512" viewBox="0 0 64 64" width="512" xmlns="http://www.w3.org/2000/svg" data-name="Layer 3"><path d="m51.11 51.63 1.89 12.37h-42l2.15-11.24.19-.98-.95-.32-.68-.23-9.71-3.23 7-41c0-3.31 2.69-7 6-7h34c3.31 0 6 3.69 6 7l7 41z" fill="#e3774a"/><path d="m40 0-6 17h-4l-6-17z" fill="#8e2e14"/><path d="m30 17h-5l-6-17h5z" fill="#e55421"/><path d="m45 0-6 17h-5l6-17z" fill="#e55421"/><path d="m25 17h14v5h-14z" fill="#e55421"/><g opacity=".5"><path d="m24 31v33h-13l2.338-12.221-2.336-.785 1.915-11.994 3.083-24z" fill="#aa3713"/></g><g opacity=".5"><path d="m55.99 50-4.88 1.63-.79-4.71-.33-1.98-.99-5.94v-24l5.17 29.5z" fill="#aa3713"/></g><path d="m43 36a1 1 0 0 1 -1-1v-2a1 1 0 0 1 2 0v2a1 1 0 0 1 -1 1z" fill="#e55421"/><g fill="#aa3713"><path d="m16 13.083a1 1 0 0 1 -1-1v-2a1 1 0 0 1 2 0v2a1 1 0 0 1 -1 1z"/><path d="m49 40a1 1 0 0 1 -1-1v-24a1 1 0 0 1 2 0v24a1 1 0 0 1 -1 1z"/><path d="m17 25v14a1.23 1.23 0 0 1 -.02.2l-2.66 12.78a1 1 0 0 1 -.98.8 1.231 1.231 0 0 1 -.19-.02l.19-.98-.95-.32 2.61-12.56v-13.9a1 1 0 0 1 2 0z"/><path d="m16 22a1 1 0 0 1 -1-1v-6a1 1 0 0 1 2 0v6a1 1 0 0 1 -1 1z"/></g><path d="m28 40h-12a1 1 0 0 1 0-2h12a1 1 0 0 1 0 2z" fill="#02483d"/><path d="m49 40h-12a1 1 0 0 1 0-2h12a1 1 0 0 1 0 2z" fill="#02483d"/><path d="m14.764 45.936a.987.987 0 0 1 -.264-.036l-10.763-2.935a1 1 0 0 1 .526-1.93l10.764 2.936a1 1 0 0 1 -.263 1.965z" fill="#aa3713"/><path d="m61.15 43.01-10.65 3.87a.585.585 0 0 1 -.18.04l-.33-1.98 10.67-3.88a.834.834 0 0 1 .15-.04z" fill="#aa3713"/><path d="m46 64a1 1 0 0 1 -1-.909l-1-11v-2.091a1 1 0 0 1 2 0v2l1 10.909a1 1 0 0 1 -.91 1.091c-.03 0-.061 0-.09 0z" fill="#e55421"/><path d="m46 44h-1a1 1 0 0 1 0-2h1a1 1 0 0 1 0 2z" fill="#e55421"/><path d="m41 44h-1a1 1 0 0 1 0-2h1a1 1 0 0 1 0 2z" fill="#e55421"/><path d="m28 56a1 1 0 0 1 -1-1v-8a1 1 0 0 1 .143-.515l3-5a1 1 0 1 1 1.715 1.029l-2.858 4.763v7.723a1 1 0 0 1 -1 1z" fill="#02483d"/><path d="m34 58a1 1 0 0 1 -1-1v-15a1 1 0 0 1 2 0v15a1 1 0 0 1 -1 1z" fill="#02483d"/><path d="m36 43.5h-8a1 1 0 0 1 -1-1v-7a1 1 0 0 1 1-1h8a1 1 0 0 1 1 1v7a1 1 0 0 1 -1 1zm-7-2h6v-5h-6z" fill="#02483d"/></svg>