<svg id="Layer_3" height="512" viewBox="0 0 64 64" width="512" xmlns="http://www.w3.org/2000/svg" data-name="Layer 3"><path d="m15 21h-4a1 1 0 0 1 0-2h4a1 1 0 1 1 0 2z" fill="#aa3713"/><path d="m53 21h-4a1 1 0 0 1 0-2h4a1 1 0 0 1 0 2z" fill="#aa3713"/><path d="m27 34-12-3v-24c0-3.314 3.761-7 8.4-7h17.2c4.64 0 8.4 3.686 8.4 7v24l-12 3" fill="#02483d"/><path d="m17 37a6 6 0 0 0 -6 6v21h42v-21a6 6 0 0 0 -6-6z" fill="#e55421"/><path d="m37.001 30v7l-5 9-5-9v-6.969z" fill="#d6795c"/><circle cx="18.501" cy="21.5" fill="#e55421" r="3.5"/><circle cx="45.501" cy="21.5" fill="#e55421" r="3.5"/><path d="m36 10h-8c-3.31 0-6 3.69-6 7v9c0 2.66 6.47 6.22 9 7.51.62.31 1 .49 1 .49s10-4.69 10-8v-9c0-3.31-2.689-7-6-7z" fill="#eb8a67"/><path d="m31 33.51c-2.53-1.29-9-4.85-9-7.51v-9c0-3.31 2.69-7 6-7v18.62a10.169 10.169 0 0 0 .44 1.17 12.661 12.661 0 0 0 2.56 3.72z" fill="#f79f84"/><circle cx="32.001" cy="5.5" fill="#e55421" r="4.5"/><g fill="#aa3713"><path d="m46 42h-1a1 1 0 0 1 0-2h1a1 1 0 0 1 0 2z"/><path d="m42 42h-1a1 1 0 0 1 0-2h1a1 1 0 0 1 0 2z"/><path d="m32 47a1 1 0 0 1 -.874-.514l-5-9a1 1 0 1 1 1.748-.972l4.126 7.427 4.126-7.427a1 1 0 1 1 1.748.972l-5 9a1 1 0 0 1 -.874.514z"/><path d="m19 64a1 1 0 0 1 -1-1v-2a1 1 0 0 1 .293-.707c.238-.238.509-.468.783-.7 1.112-.937 1.395-1.309 1.093-2.011l-1.876-1.876a1 1 0 0 1 -.293-.706v-3a1 1 0 0 1 2 0v2.586l1.708 1.707a1 1 0 0 1 .188.26c1.154 2.309-.526 3.725-1.53 4.57-.124.1-.247.208-.365.312v1.565a1 1 0 0 1 -1.001 1z"/><path d="m19 49a1 1 0 0 1 -1-1v-1a1 1 0 0 1 2 0v1a1 1 0 0 1 -1 1z"/><path d="m45 64a1 1 0 0 1 -1-1v-1.565c-.119-.1-.242-.208-.365-.312-1-.846-2.683-2.262-1.529-4.57a1 1 0 0 1 .188-.26l1.706-1.707v-7.586a1 1 0 0 1 2 0v8a1 1 0 0 1 -.293.707l-1.876 1.876c-.3.7-.02 1.073 1.093 2.01.274.231.545.461.783.7a1 1 0 0 1 .293.707v2a1 1 0 0 1 -1 1z"/></g><path d="m29 21h-2a1 1 0 1 1 0-2h2a1 1 0 0 1 0 2z" fill="#02483d"/><path d="m37 21h-2a1 1 0 0 1 0-2h2a1 1 0 0 1 0 2z" fill="#02483d"/><path d="m41 47h-17a1 1 0 1 1 0-2h17a1 1 0 0 1 0 2z" fill="#aa3713"/><path d="m21 9a1 1 0 0 1 -.316-.052c-3.793-1.264-2.711-6.905-2.663-7.148a1 1 0 0 1 1.961.391c-.008.042-.756 4.16 1.335 4.857a1 1 0 0 1 -.317 1.952z" fill="#0d8e85"/><path d="m26 62a1 1 0 0 1 -1-1v-15a1 1 0 0 1 1.91-.414l5 11a1 1 0 0 1 -1.82.827l-3.09-6.796v10.383a1 1 0 0 1 -1 1z" fill="#02483d"/><path d="m49 8h-5a1 1 0 0 0 0 2h5a1 1 0 0 0 0-2z" fill="#0d8e85"/></svg>