<svg id="Layer_3" height="512" viewBox="0 0 64 64" width="512" xmlns="http://www.w3.org/2000/svg" data-name="Layer 3"><path d="m53 64v-21a6 6 0 0 0 -6-6h-30a6 6 0 0 0 -6 6v21z" fill="#e55421"/><path d="m22 17v-11a6 6 0 0 1 6-6h8a6 6 0 0 1 6 6v11z" fill="#02483d"/><g fill="#d6795c"><path d="m37.001 30v7l-5 9-5-9v-6.969z"/><path d="m29 36.482 3 5.4 3-5.4v-4.476l-6 .019z"/><path d="m18.551 15.62a1 1 0 0 0 -1.365 1.039l.519 4.673a3 3 0 0 0 2.981 2.668h1.314v-7z"/><path d="m45.452 15.62-3.452 1.38v7h1.315a3 3 0 0 0 2.985-2.669l.519-4.673a1 1 0 0 0 -1.367-1.038z"/></g><path d="m42 17v9c0 3.31-10 8-10 8s-.38-.18-1-.49c-2.53-1.29-9-4.85-9-7.51v-9c0-3.31 2.69-7 6-7h8c3.311 0 6 3.69 6 7z" fill="#eb8a67"/><path d="m28 12c-2.154 0-4 2.75-4 5v9c.207 1.078 3.913 3.745 8 5.779 4.087-2.034 7.793-4.7 8-5.816v-8.963c0-2.25-1.846-5-4-5z" fill="#eb8a67"/><path d="m31 33.51c-2.53-1.29-9-4.85-9-7.51v-9c0-3.31 2.69-7 6-7v18.62a10.169 10.169 0 0 0 .44 1.17 12.661 12.661 0 0 0 2.56 3.72z" fill="#f79f84"/><circle cx="32.001" cy="6" fill="#e55421" r="3"/><path d="m32 5a1 1 0 1 0 1 1 1 1 0 0 0 -1-1z" fill="#e55421"/><path d="m32 47a1 1 0 0 1 -.874-.514l-5-9a1 1 0 1 1 1.748-.972l4.126 7.427 4.126-7.427a1 1 0 1 1 1.748.972l-5 9a1 1 0 0 1 -.874.514z" fill="#aa3713"/><path d="m18 64a1 1 0 0 1 -.556-1.832l2.91-1.939a1.828 1.828 0 0 0 -.061-2.521l-2-2a1 1 0 0 1 -.293-.708v-8a1 1 0 0 1 2 0v7.586l1.708 1.707a3.833 3.833 0 0 1 0 5.414.984.984 0 0 1 -.152.125l-3 2a.994.994 0 0 1 -.556.168z" fill="#aa3713"/><path d="m46 64a1 1 0 0 1 -.553-.167l-3-2a.968.968 0 0 1 -.153-.125 3.833 3.833 0 0 1 0-5.414l1.706-1.708v-7.586a1 1 0 0 1 2 0v8a1 1 0 0 1 -.293.707l-2 2a1.828 1.828 0 0 0 -.061 2.521l2.912 1.939a1 1 0 0 1 -.558 1.833z" fill="#aa3713"/><path d="m29 21h-2a1 1 0 0 1 0-2h2a1 1 0 0 1 0 2z" fill="#02483d"/><path d="m37 21h-2a1 1 0 0 1 0-2h2a1 1 0 0 1 0 2z" fill="#02483d"/><path d="m40 47h-15a1 1 0 1 1 0-2h15a1 1 0 0 1 0 2z" fill="#aa3713"/><path d="m27 56a1 1 0 0 1 -1-1v-9a1 1 0 0 1 2 0v9a1 1 0 0 1 -1 1z" fill="#aa3713"/><path d="m18 30.917a1 1 0 0 1 -1-1v-1.917a1 1 0 0 1 2 0v1.917a1 1 0 0 1 -1 1z" fill="#e55421"/><path d="m46 31a1 1 0 0 1 -1-1v-1.917a1 1 0 1 1 2 0v1.917a1 1 0 0 1 -1 1z" fill="#e55421"/><path d="m42 59h-20a1 1 0 1 1 0-2h20a1 1 0 0 1 0 2z" fill="#aa3713"/><path d="m47 42h-1a1 1 0 0 1 0-2h1a1 1 0 0 1 0 2z" fill="#aa3713"/><path d="m43 42h-1a1 1 0 0 1 0-2h1a1 1 0 0 1 0 2z" fill="#aa3713"/></svg>